<?xml version="1.0" standalone="no"?>
<!DOCTYPE svg PUBLIC "-//W3C//DTD SVG 1.1//EN" "http://www.w3.org/Graphics/SVG/1.1/DTD/svg11.dtd" >
<svg xmlns="http://www.w3.org/2000/svg" xmlns:xlink="http://www.w3.org/1999/xlink" version="1.1">
<metadata>
Created by FontForge 20160407 at Thu Sep 15 06:34:28 2016
 By Jimmy Wärting
Copyright 1990-1992 as an unpublished work by Bitstream Inc.  All rights reserved.  Confidential.
</metadata>
<defs>
<font id="BodoniBT-BoldCondensed" horiz-adv-x="500" >
  <font-face 
    font-family="Bodoni"
    font-weight="700"
    font-stretch="condensed"
    units-per-em="1000"
    panose-1="2 0 8 6 8 0 0 2 0 3"
    ascent="800"
    descent="-200"
    x-height="375"
    cap-height="653"
    bbox="-167 -255 1000 920"
    underline-thickness="66"
    underline-position="-111"
    unicode-range="U+0020-FB02"
  />
<missing-glyph horiz-adv-x="199" 
 />
    <glyph glyph-name="fi" unicode="fi" horiz-adv-x="458" 
d="M19 25h55v322h-55v28h55v11q0 134 49 203.5t138 69.5q52 0 83.5 -26t31.5 -61q0 -25 -14.5 -40.5t-38.5 -15.5q-22 0 -35 13.5t-13 36.5q0 19 8.5 32.5t8.5 23.5q0 6 -9.5 11t-25.5 5q-42 0 -60.5 -40.5t-18.5 -122.5v-100h123q26 0 50.5 2t47.5 6v-358h40v-25h-182v25
h37v322h-116v-322h35v-25h-194v25z" />
    <glyph glyph-name="fl" unicode="fl" horiz-adv-x="458" 
d="M294 375v150q-19 12 -19 41q0 19 8.5 32.5t8.5 23.5q0 6 -9.5 11t-25.5 5q-42 0 -60.5 -40.5t-18.5 -122.5v-100h116zM19 25h55v322h-55v28h55v14q0 131 49.5 200t137.5 69q23 0 43 -3t35 -3q11 0 25.5 2t34.5 6v-635h40v-25h-182v25h37v322h-116v-322h35v-25h-194v25z
" />
    <glyph glyph-name=".notdef" horiz-adv-x="199" 
 />
    <glyph glyph-name=".null" horiz-adv-x="0" 
 />
    <glyph glyph-name="nonmarkingreturn" horiz-adv-x="199" 
 />
    <glyph glyph-name="space" unicode=" " horiz-adv-x="199" 
 />
    <glyph glyph-name="space" unicode="&#xa0;" horiz-adv-x="199" 
 />
    <glyph glyph-name="Acircumflex" unicode="&#xc2;" horiz-adv-x="465" 
d="M248 224l-54 211l-58 -211h112zM6 28h43l178 625h39l164 -625h35v-28h-214v28h47l-42 166h-129l-47 -166h59v-28h-133v28zM280 887l113 -171h-28l-114 103l-114 -103h-28l113 171h58z" />
    <glyph glyph-name="Adieresis" unicode="&#xc4;" horiz-adv-x="465" 
d="M248 224l-54 211l-58 -211h112zM6 28h43l178 625h39l164 -625h35v-28h-214v28h47l-42 166h-129l-47 -166h59v-28h-133v28zM337 841q20 0 34 -14.5t14 -34.5q0 -21 -13.5 -35t-34.5 -14t-35 14t-14 35q0 20 14.5 34.5t34.5 14.5zM165 841q20 0 34.5 -14.5t14.5 -34.5
q0 -21 -14 -35t-35 -14t-34.5 14t-13.5 35q0 20 14 34.5t34 14.5z" />
    <glyph glyph-name="Agrave" unicode="&#xc0;" horiz-adv-x="465" 
d="M248 224l-54 211l-58 -211h112zM6 28h43l178 625h39l164 -625h35v-28h-214v28h47l-42 166h-129l-47 -166h59v-28h-133v28zM337 716h-33l-161 101q-30 19 -30 40q0 15 10 25t25 10q13 0 23.5 -8t24.5 -22z" />
    <glyph glyph-name="Aring" unicode="&#xc5;" horiz-adv-x="465" 
d="M250 876q-30 0 -51 -21t-21 -52q0 -30 21 -51.5t51 -21.5q31 0 52.5 21.5t21.5 51.5q0 31 -21.5 52t-52.5 21zM250 920q25 0 46.5 -9t37.5 -25t25 -37t9 -46t-9 -46.5t-25 -37.5t-37.5 -25t-46.5 -9t-46.5 9t-37 25t-24.5 37.5t-9 46.5t9 46t24.5 37t37 25t46.5 9z
M248 224l-54 211l-58 -211h112zM6 28h43l178 625h39l164 -625h35v-28h-214v28h47l-42 166h-129l-47 -166h59v-28h-133v28z" />
    <glyph glyph-name="Atilde" unicode="&#xc3;" horiz-adv-x="465" 
d="M248 224l-54 211l-58 -211h112zM6 28h43l178 625h39l164 -625h35v-28h-214v28h47l-42 166h-129l-47 -166h59v-28h-133v28zM391 862q-19 -100 -95 -100q-14 0 -36 5l-53 13q-12 3 -28 3q-17 0 -26.5 -10.5t-16.5 -33.5h-25q18 104 96 104q18 0 31 -4l54 -14q18 -5 27 -5
q19 0 29 10t17 32h26z" />
    <glyph glyph-name="B" unicode="B" horiz-adv-x="521" 
d="M209 353q4 0 7.5 -0.5t7.5 -0.5q54 0 76 33t22 105q0 74 -19 105t-72 31h-10.5t-11.5 -1v-272zM222 28q32 0 53.5 7.5t34.5 24.5t18.5 44.5t5.5 67.5q0 81 -24 118.5t-84 37.5q-4 0 -8 -0.5t-9 -0.5v-299h13zM28 28h47v597h-47v28h192q121 0 180.5 -34.5t59.5 -112.5
q0 -134 -185 -163q101 -11 153.5 -56t52.5 -114q0 -173 -245 -173h-208v28z" />
    <glyph glyph-name="C" unicode="C" horiz-adv-x="458" 
d="M373 28q-55 -40 -109 -40q-52 0 -95 23t-74 66t-48.5 104t-17.5 138q0 141 62 235q36 54 79.5 82t90.5 28q57 0 114 -51l24 44h17v-183h-22q-13 81 -46 122t-78 41q-48 0 -68 -43t-20 -131v-260q0 -97 18.5 -142.5t71.5 -45.5q48 0 82.5 45t42.5 128h24v-194h-21z" />
    <glyph glyph-name="Ccedilla" unicode="&#xc7;" horiz-adv-x="458" 
d="M373 28q-55 -40 -109 -40q-52 0 -95 23t-74 66t-48.5 104t-17.5 138q0 141 62 235q36 54 79.5 82t90.5 28q57 0 114 -51l24 44h17v-183h-22q-13 81 -46 122t-78 41q-48 0 -68 -43t-20 -131v-260q0 -97 18.5 -142.5t71.5 -45.5q48 0 82.5 45t42.5 128h24v-194h-21zM252 0
v-55q16 3 30 3q43 0 66 -21.5t23 -58.5q0 -39 -28 -62.5t-79 -23.5q-32 0 -66.5 10t-76.5 27l16 38q33 -19 61 -27t48 -8q60 0 60 45q0 20 -14.5 32t-41.5 12q-13 0 -29 -3v92h31z" />
    <glyph glyph-name="D" unicode="D" horiz-adv-x="525" 
d="M186 653q62 0 110 -8.5t87 -33.5q53 -34 82 -105.5t29 -174.5q0 -109 -33 -184.5t-93 -113.5q-38 -24 -79.5 -28.5t-90.5 -4.5h-170v28h47v597h-47v28h158zM342 416q0 55 -4.5 95t-18 65t-38.5 37t-67 12h-5v-597q6 -1 11.5 -1h10.5q64 0 87.5 44.5t23.5 140.5v204z" />
    <glyph glyph-name="E" unicode="E" horiz-adv-x="465" 
d="M28 28h47v597h-47v28h395l6 -166h-23q-11 40 -24 67t-31.5 42.5t-44.5 22t-63 6.5h-34v-270q51 2 71 28t22 87h23v-271h-23q-2 69 -21.5 98t-71.5 30v-299h35q42 0 72.5 10t51 32.5t32.5 58t17 86.5h25l-9 -215h-405v28z" />
    <glyph glyph-name="Eacute" unicode="&#xc9;" horiz-adv-x="465" 
d="M28 28h47v597h-47v28h395l6 -166h-23q-11 40 -24 67t-31.5 42.5t-44.5 22t-63 6.5h-34v-270q51 2 71 28t22 87h23v-271h-23q-2 69 -21.5 98t-71.5 30v-299h35q42 0 72.5 10t51 32.5t32.5 58t17 86.5h25l-9 -215h-405v28zM181 716h-33l141 146q14 14 24.5 22t23.5 8
q15 0 25 -10t10 -25q0 -21 -30 -40z" />
    <glyph glyph-name="Ecircumflex" unicode="&#xca;" horiz-adv-x="465" 
d="M28 28h47v597h-47v28h395l6 -166h-23q-11 40 -24 67t-31.5 42.5t-44.5 22t-63 6.5h-34v-270q51 2 71 28t22 87h23v-271h-23q-2 69 -21.5 98t-71.5 30v-299h35q42 0 72.5 10t51 32.5t32.5 58t17 86.5h25l-9 -215h-405v28zM263 887l113 -171h-28l-114 103l-114 -103h-28
l113 171h58z" />
    <glyph glyph-name="Edieresis" unicode="&#xcb;" horiz-adv-x="465" 
d="M28 28h47v597h-47v28h395l6 -166h-23q-11 40 -24 67t-31.5 42.5t-44.5 22t-63 6.5h-34v-270q51 2 71 28t22 87h23v-271h-23q-2 69 -21.5 98t-71.5 30v-299h35q42 0 72.5 10t51 32.5t32.5 58t17 86.5h25l-9 -215h-405v28zM320 841q20 0 34 -14.5t14 -34.5q0 -21 -13.5 -35
t-34.5 -14t-35 14t-14 35q0 20 14.5 34.5t34.5 14.5zM148 841q20 0 34.5 -14.5t14.5 -34.5q0 -21 -14 -35t-35 -14t-34.5 14t-13.5 35q0 20 14 34.5t34 14.5z" />
    <glyph glyph-name="Egrave" unicode="&#xc8;" horiz-adv-x="465" 
d="M28 28h47v597h-47v28h395l6 -166h-23q-11 40 -24 67t-31.5 42.5t-44.5 22t-63 6.5h-34v-270q51 2 71 28t22 87h23v-271h-23q-2 69 -21.5 98t-71.5 30v-299h35q42 0 72.5 10t51 32.5t32.5 58t17 86.5h25l-9 -215h-405v28zM320 716h-33l-161 101q-30 19 -30 40q0 15 10 25
t25 10q13 0 23.5 -8t24.5 -22z" />
    <glyph glyph-name="F" unicode="F" horiz-adv-x="444" 
d="M28 28h47v597h-47v28h401l6 -191h-25q-9 46 -21 77.5t-30 50.5t-44.5 27t-63.5 8h-42v-275q51 2 71.5 28.5t22.5 87.5h25v-269h-23q-5 66 -24.5 96t-62.5 30h-9v-295h53v-28h-234v28z" />
    <glyph glyph-name="G" unicode="G" horiz-adv-x="507" 
d="M499 263h-27q-2 -135 -57.5 -205t-155.5 -70q-51 0 -93.5 22.5t-72.5 64.5t-47 102.5t-17 137.5q0 81 18.5 145.5t51 109.5t75.5 69.5t93 24.5q35 0 63 -13.5t57 -41.5l24 44h25l-1 -185h-26q-12 83 -47.5 126t-85.5 43q-51 0 -73 -57t-22 -173v-186q0 -104 13.5 -154.5
t59.5 -50.5q42 0 57 35.5t15 110.5v101h-45v28h218v-28z" />
    <glyph glyph-name="H" unicode="H" horiz-adv-x="569" 
d="M28 28h47v597h-47v28h227v-28h-46v-269h152v269h-47v28h227v-28h-46v-597h46v-28h-227v28h47v298h-152v-298h46v-28h-227v28z" />
    <glyph glyph-name="I" unicode="I" horiz-adv-x="295" 
d="M261 28v-28h-227v28h46v597h-46v28h227v-28h-46v-597h46z" />
    <glyph glyph-name="Iacute" unicode="&#xcd;" horiz-adv-x="295" 
d="M261 28v-28h-227v28h46v597h-46v28h227v-28h-46v-597h46zM96 716h-33l141 146q14 14 24.5 22t23.5 8q15 0 25 -10t10 -25q0 -21 -30 -40z" />
    <glyph glyph-name="Icircumflex" unicode="&#xce;" horiz-adv-x="295" 
d="M261 28v-28h-227v28h46v597h-46v28h227v-28h-46v-597h46zM178 887l113 -171h-28l-114 103l-114 -103h-28l113 171h58z" />
    <glyph glyph-name="Idieresis" unicode="&#xcf;" horiz-adv-x="295" 
d="M261 28v-28h-227v28h46v597h-46v28h227v-28h-46v-597h46zM235 841q20 0 34 -14.5t14 -34.5q0 -21 -13.5 -35t-34.5 -14t-35 14t-14 35q0 20 14.5 34.5t34.5 14.5zM63 841q20 0 34.5 -14.5t14.5 -34.5q0 -21 -14 -35t-35 -14t-34.5 14t-13.5 35q0 20 14 34.5t34 14.5z" />
    <glyph glyph-name="Igrave" unicode="&#xcc;" horiz-adv-x="295" 
d="M261 28v-28h-227v28h46v597h-46v28h227v-28h-46v-597h46zM235 716h-33l-161 101q-30 19 -30 40q0 15 10 25t25 10q13 0 23.5 -8t24.5 -22z" />
    <glyph glyph-name="J" unicode="J" horiz-adv-x="339" 
d="M81 -46q15 -9 32 -9q23 0 38.5 17t15.5 43q0 15 -5.5 36t-12.5 50t-12.5 67.5t-5.5 88.5v378h-50v28h226v-28h-42v-470q0 -118 -40.5 -177t-115.5 -59q-45 0 -73 25.5t-28 61.5q0 29 16.5 46t42.5 17q24 0 39 -15t15 -40q0 -21 -9 -34.5t-31 -25.5z" />
    <glyph glyph-name="K" unicode="K" horiz-adv-x="529" 
d="M219 344l180 281h-50v28h149v-28h-63l-129 -199l201 -398h29v-28h-223v28h52l-146 299v17zM28 28h47v597h-47v28h228v-28h-47v-597h47v-28h-228v28z" />
    <glyph glyph-name="L" unicode="L" horiz-adv-x="446" 
d="M28 28h47v597h-47v28h234v-28h-53v-597h46q71 0 106 46t46 145h24v-219h-403v28z" />
    <glyph glyph-name="M" unicode="M" horiz-adv-x="632" 
d="M29 28h45v597h-45v28h192l89 -405l107 405h181v-28h-40v-597h40v-28h-219v28h49v554l-153 -582h-32l-139 598v-570h45v-28h-120v28z" />
    <glyph glyph-name="N" unicode="N" horiz-adv-x="495" 
d="M25 28h49v597h-49v28h176l195 -396v368h-53v28h134v-28h-51v-634h-39l-283 573v-536h53v-28h-132v28z" />
    <glyph glyph-name="Ntilde" unicode="&#xd1;" horiz-adv-x="495" 
d="M25 28h49v597h-49v28h176l195 -396v368h-53v28h134v-28h-51v-634h-39l-283 573v-536h53v-28h-132v28zM396 862q-19 -100 -95 -100q-14 0 -36 5l-53 13q-12 3 -28 3q-17 0 -26.5 -10.5t-16.5 -33.5h-25q18 104 96 104q18 0 31 -4l54 -14q18 -5 27 -5q19 0 29 10t17 32h26z
" />
    <glyph glyph-name="O" unicode="O" horiz-adv-x="545" 
d="M363 433q0 104 -20.5 154t-70.5 50t-70.5 -50t-20.5 -154v-214q0 -104 20.5 -154.5t70.5 -50.5t70.5 50.5t20.5 154.5v214zM29 326q0 80 21 143.5t67 116.5q34 38 73.5 58t81.5 20t82.5 -20t73.5 -58q46 -53 67 -116.5t21 -143.5t-21 -143t-67 -116q-33 -38 -73.5 -58.5
t-82.5 -20.5t-81.5 20.5t-73.5 58.5q-46 53 -67 116t-21 143z" />
    <glyph glyph-name="OE" unicode="&#x152;" horiz-adv-x="731" 
d="M356 0q-63 0 -112 4.5t-89 27.5q-60 33 -93 108t-33 186q0 112 39 189t107 111q41 20 91 23.5t115 3.5h310l6 -166h-23q-10 40 -22.5 66.5t-30 42.5t-42.5 22.5t-61 6.5h-37v-270q52 0 72 26.5t22 88.5h22v-271h-22q-2 69 -21 98.5t-70 29.5h-3v-299h38q41 0 70 10
t48.5 32.5t31 58t16.5 86.5h24l-9 -215h-314h-30zM355 428q0 101 -17.5 149t-70.5 48t-71 -48t-18 -149v-205q0 -101 18 -148.5t71 -47.5t70.5 47.5t17.5 148.5v205z" />
    <glyph glyph-name="Oacute" unicode="&#xd3;" horiz-adv-x="545" 
d="M363 433q0 104 -20.5 154t-70.5 50t-70.5 -50t-20.5 -154v-214q0 -104 20.5 -154.5t70.5 -50.5t70.5 50.5t20.5 154.5v214zM29 326q0 80 21 143.5t67 116.5q34 38 73.5 58t81.5 20t82.5 -20t73.5 -58q46 -53 67 -116.5t21 -143.5t-21 -143t-67 -116q-33 -38 -73.5 -58.5
t-82.5 -20.5t-81.5 20.5t-73.5 58.5q-46 53 -67 116t-21 143zM220 716h-33l141 146q14 14 24.5 22t23.5 8q15 0 25 -10t10 -25q0 -21 -30 -40z" />
    <glyph glyph-name="Ocircumflex" unicode="&#xd4;" horiz-adv-x="545" 
d="M363 433q0 104 -20.5 154t-70.5 50t-70.5 -50t-20.5 -154v-214q0 -104 20.5 -154.5t70.5 -50.5t70.5 50.5t20.5 154.5v214zM29 326q0 80 21 143.5t67 116.5q34 38 73.5 58t81.5 20t82.5 -20t73.5 -58q46 -53 67 -116.5t21 -143.5t-21 -143t-67 -116q-33 -38 -73.5 -58.5
t-82.5 -20.5t-81.5 20.5t-73.5 58.5q-46 53 -67 116t-21 143zM302 887l113 -171h-28l-114 103l-114 -103h-28l113 171h58z" />
    <glyph glyph-name="Odieresis" unicode="&#xd6;" horiz-adv-x="545" 
d="M363 433q0 104 -20.5 154t-70.5 50t-70.5 -50t-20.5 -154v-214q0 -104 20.5 -154.5t70.5 -50.5t70.5 50.5t20.5 154.5v214zM29 326q0 80 21 143.5t67 116.5q34 38 73.5 58t81.5 20t82.5 -20t73.5 -58q46 -53 67 -116.5t21 -143.5t-21 -143t-67 -116q-33 -38 -73.5 -58.5
t-82.5 -20.5t-81.5 20.5t-73.5 58.5q-46 53 -67 116t-21 143zM359 841q20 0 34 -14.5t14 -34.5q0 -21 -13.5 -35t-34.5 -14t-35 14t-14 35q0 20 14.5 34.5t34.5 14.5zM187 841q20 0 34.5 -14.5t14.5 -34.5q0 -21 -14 -35t-35 -14t-34.5 14t-13.5 35q0 20 14 34.5t34 14.5z
" />
    <glyph glyph-name="Ograve" unicode="&#xd2;" horiz-adv-x="545" 
d="M363 433q0 104 -20.5 154t-70.5 50t-70.5 -50t-20.5 -154v-214q0 -104 20.5 -154.5t70.5 -50.5t70.5 50.5t20.5 154.5v214zM29 326q0 80 21 143.5t67 116.5q34 38 73.5 58t81.5 20t82.5 -20t73.5 -58q46 -53 67 -116.5t21 -143.5t-21 -143t-67 -116q-33 -38 -73.5 -58.5
t-82.5 -20.5t-81.5 20.5t-73.5 58.5q-46 53 -67 116t-21 143zM359 716h-33l-161 101q-30 19 -30 40q0 15 10 25t25 10q13 0 23.5 -8t24.5 -22z" />
    <glyph glyph-name="Oslash" unicode="&#xd8;" horiz-adv-x="545" 
d="M120 62q-91 102 -91 264q0 80 21 143.5t67 116.5q34 38 73.5 58t81.5 20q68 0 124 -47l39 79h42l-51 -105q90 -105 90 -265q0 -80 -21 -143t-67 -116q-33 -38 -73.5 -58.5t-82.5 -20.5q-34 0 -64.5 12.5t-60.5 37.5l-40 -81h-39zM191 97q19 -83 81 -83q50 0 70.5 50.5
t20.5 154.5v269zM353 559q-8 38 -30 58t-51 20q-50 0 -70.5 -50t-20.5 -154v-265z" />
    <glyph glyph-name="Otilde" unicode="&#xd5;" horiz-adv-x="545" 
d="M363 433q0 104 -20.5 154t-70.5 50t-70.5 -50t-20.5 -154v-214q0 -104 20.5 -154.5t70.5 -50.5t70.5 50.5t20.5 154.5v214zM29 326q0 80 21 143.5t67 116.5q34 38 73.5 58t81.5 20t82.5 -20t73.5 -58q46 -53 67 -116.5t21 -143.5t-21 -143t-67 -116q-33 -38 -73.5 -58.5
t-82.5 -20.5t-81.5 20.5t-73.5 58.5q-46 53 -67 116t-21 143zM413 862q-19 -100 -95 -100q-14 0 -36 5l-53 13q-12 3 -28 3q-17 0 -26.5 -10.5t-16.5 -33.5h-25q18 104 96 104q18 0 31 -4l54 -14q18 -5 27 -5q19 0 29 10t17 32h26z" />
    <glyph glyph-name="P" unicode="P" horiz-adv-x="495" 
d="M209 336q6 -1 11.5 -1h10.5q60 0 84.5 34t24.5 111q0 78 -24.5 112t-86.5 34h-10t-10 -1v-289zM28 28h47v597h-47v28h213q242 0 242 -165q0 -86 -61 -133t-179 -47h-16.5t-17.5 1v-281h55v-28h-236v28z" />
    <glyph glyph-name="Q" unicode="Q" horiz-adv-x="545" 
d="M476 -189q-32 -6 -67 -6q-106 0 -156 46t-50 143v9q-84 42 -129 124t-45 199q0 80 21 143.5t67 116.5q33 38 73 58t82 20t82.5 -20t73.5 -58q46 -53 67 -116.5t21 -143.5q0 -116 -44.5 -198t-127.5 -124q-3 -32 -3 -48q0 -125 124 -125h11v-20zM363 433q0 104 -20.5 154
t-70.5 50t-70.5 -50t-20.5 -154v-214q0 -104 20.5 -154.5t70.5 -50.5t70.5 50.5t20.5 154.5v214z" />
    <glyph glyph-name="R" unicode="R" horiz-adv-x="514" 
d="M238 365q57 0 80 31t23 99q0 69 -21.5 99.5t-75.5 30.5h-35v-260h29zM28 28h47v597h-47v28h196q132 0 196 -35t64 -112q0 -67 -52 -107.5t-155 -48.5v-6q164 -37 176 -175q3 -36 3 -62.5t1.5 -44.5t8 -26.5t23.5 -8.5q8 0 13 1l6 -25q-33 -11 -64 -11q-72 0 -105 52
q-16 25 -19 57.5t-5 74.5t-6.5 72t-16 49.5t-31.5 29t-52 10.5v-309h47v-28h-228v28z" />
    <glyph glyph-name="S" unicode="S" horiz-adv-x="400" 
d="M40 197h22q11 -89 48 -134.5t94 -45.5q43 0 70.5 28t27.5 72q0 24 -8 43t-23 36t-36.5 33t-48.5 34q-35 25 -62.5 48t-46 49t-28 57t-9.5 72q0 39 11.5 71.5t32.5 55.5t49.5 35.5t62.5 12.5q30 0 57 -10.5t55 -31.5l21 34h22v-173h-22q-17 78 -52 117t-86 39
q-38 0 -63.5 -23.5t-25.5 -58.5q0 -24 11 -43t31.5 -36t48.5 -35.5t61 -41.5q60 -42 87.5 -93.5t27.5 -120.5q0 -45 -12.5 -81.5t-34.5 -62.5t-52.5 -40t-65.5 -14q-57 0 -116 44l-26 -28h-22v192z" />
    <glyph glyph-name="T" unicode="T" horiz-adv-x="484" 
d="M107 28h67v598h-8q-51 0 -78.5 -44t-44.5 -137h-24l6 208h433l5 -208h-23q-17 93 -44.5 137t-78.5 44h-8v-598h67v-28h-269v28z" />
    <glyph glyph-name="U" unicode="U" horiz-adv-x="507" 
d="M31 625v28h226v-28h-50v-441q0 -41 3 -71.5t13 -50.5t28 -30t47 -10q59 0 82.5 42t23.5 130v431h-44v28h126v-28h-51v-407q0 -60 -8 -104t-28.5 -72.5t-56 -42t-89.5 -13.5q-48 0 -85.5 16t-58.5 42q-25 32 -30.5 71.5t-5.5 92.5v417h-42z" />
    <glyph glyph-name="Uacute" unicode="&#xda;" horiz-adv-x="507" 
d="M31 625v28h226v-28h-50v-441q0 -41 3 -71.5t13 -50.5t28 -30t47 -10q59 0 82.5 42t23.5 130v431h-44v28h126v-28h-51v-407q0 -60 -8 -104t-28.5 -72.5t-56 -42t-89.5 -13.5q-48 0 -85.5 16t-58.5 42q-25 32 -30.5 71.5t-5.5 92.5v417h-42zM217 716h-33l141 146
q14 14 24.5 22t23.5 8q15 0 25 -10t10 -25q0 -21 -30 -40z" />
    <glyph glyph-name="Ucircumflex" unicode="&#xdb;" horiz-adv-x="507" 
d="M31 625v28h226v-28h-50v-441q0 -41 3 -71.5t13 -50.5t28 -30t47 -10q59 0 82.5 42t23.5 130v431h-44v28h126v-28h-51v-407q0 -60 -8 -104t-28.5 -72.5t-56 -42t-89.5 -13.5q-48 0 -85.5 16t-58.5 42q-25 32 -30.5 71.5t-5.5 92.5v417h-42zM299 887l113 -171h-28l-114 103
l-114 -103h-28l113 171h58z" />
    <glyph glyph-name="Udieresis" unicode="&#xdc;" horiz-adv-x="507" 
d="M31 625v28h226v-28h-50v-441q0 -41 3 -71.5t13 -50.5t28 -30t47 -10q59 0 82.5 42t23.5 130v431h-44v28h126v-28h-51v-407q0 -60 -8 -104t-28.5 -72.5t-56 -42t-89.5 -13.5q-48 0 -85.5 16t-58.5 42q-25 32 -30.5 71.5t-5.5 92.5v417h-42zM356 841q20 0 34 -14.5
t14 -34.5q0 -21 -13.5 -35t-34.5 -14t-35 14t-14 35q0 20 14.5 34.5t34.5 14.5zM184 841q20 0 34.5 -14.5t14.5 -34.5q0 -21 -14 -35t-35 -14t-34.5 14t-13.5 35q0 20 14 34.5t34 14.5z" />
    <glyph glyph-name="Ugrave" unicode="&#xd9;" horiz-adv-x="507" 
d="M31 625v28h226v-28h-50v-441q0 -41 3 -71.5t13 -50.5t28 -30t47 -10q59 0 82.5 42t23.5 130v431h-44v28h126v-28h-51v-407q0 -60 -8 -104t-28.5 -72.5t-56 -42t-89.5 -13.5q-48 0 -85.5 16t-58.5 42q-25 32 -30.5 71.5t-5.5 92.5v417h-42zM356 716h-33l-161 101
q-30 19 -30 40q0 15 10 25t25 10q13 0 23.5 -8t24.5 -22z" />
    <glyph glyph-name="V" unicode="V" horiz-adv-x="428" 
d="M28 625h-38v28h214v-28h-45l105 -416l109 416h-59v28h132v-28h-43l-169 -637h-38z" />
    <glyph glyph-name="W" unicode="W" horiz-adv-x="659" 
d="M467 625h-100l45 -166zM335 313l-88 312h-93l131 -459zM26 625h-32v28h536v-28h-34l-70 -207l65 -227l126 434h-38v28h93v-28h-25l-188 -637h-34l-80 286l-99 -286h-36z" />
    <glyph glyph-name="X" unicode="X" horiz-adv-x="465" 
d="M14 28h47l125 272l-142 325h-30v28h205v-28h-38l86 -200l92 200h-53v28h137v-28h-53l-108 -234l158 -363h29v-28h-209v28h44l-103 238l-108 -238h64v-28h-143v28z" />
    <glyph glyph-name="Y" unicode="Y" horiz-adv-x="447" 
d="M105 28h54v277l-136 320h-30v28h208v-28h-39l113 -275l106 275h-44v28h115v-28h-40l-119 -300v-297h55v-28h-243v28z" />
    <glyph glyph-name="Ydieresis" unicode="&#x178;" horiz-adv-x="447" 
d="M105 28h54v277l-136 320h-30v28h208v-28h-39l113 -275l106 275h-44v28h115v-28h-40l-119 -300v-297h55v-28h-243v28zM311 841q20 0 34 -14.5t14 -34.5q0 -21 -13.5 -35t-34.5 -14t-35 14t-14 35q0 20 14.5 34.5t34.5 14.5zM139 841q20 0 34.5 -14.5t14.5 -34.5
q0 -21 -14 -35t-35 -14t-34.5 14t-13.5 35q0 20 14 34.5t34 14.5z" />
    <glyph glyph-name="Z" unicode="Z" horiz-adv-x="456" 
d="M16 28l265 599h-57q-68 0 -103.5 -34t-50.5 -112h-24l5 172h363v-28l-266 -600h61q45 0 77 10t53.5 32t34 58t17.5 88h24l-9 -213h-390v28z" />
    <glyph glyph-name="a" unicode="a" horiz-adv-x="377" 
d="M220 195q-94 -1 -94 -89q0 -68 43 -68q24 0 37.5 19.5t13.5 58.5v79zM322 70q0 -29 15 -29q7 0 21 11l13 -11q-38 -48 -82 -48q-49 0 -64 56q-47 -56 -111 -56q-42 0 -67 26t-25 66q0 54 50 88.5t148 42.5v86q0 31 -11 45t-37 14q-21 0 -33.5 -5.5t-12.5 -10.5
q0 -3 3.5 -8t8 -11t8.5 -14.5t4 -18.5q0 -20 -14 -33.5t-35 -13.5q-22 0 -36 14t-14 35q0 38 37.5 63.5t105.5 25.5q71 0 99.5 -29t28.5 -93v-192z" />
    <glyph glyph-name="aacute" unicode="&#xe1;" horiz-adv-x="377" 
d="M220 195q-94 -1 -94 -89q0 -68 43 -68q24 0 37.5 19.5t13.5 58.5v79zM322 70q0 -29 15 -29q7 0 21 11l13 -11q-38 -48 -82 -48q-49 0 -64 56q-47 -56 -111 -56q-42 0 -67 26t-25 66q0 54 50 88.5t148 42.5v86q0 31 -11 45t-37 14q-21 0 -33.5 -5.5t-12.5 -10.5
q0 -3 3.5 -8t8 -11t8.5 -14.5t4 -18.5q0 -20 -14 -33.5t-35 -13.5q-22 0 -36 14t-14 35q0 38 37.5 63.5t105.5 25.5q71 0 99.5 -29t28.5 -93v-192zM137 438h-33l141 146q14 14 24.5 22t23.5 8q15 0 25 -10t10 -25q0 -21 -30 -40z" />
    <glyph glyph-name="acircumflex" unicode="&#xe2;" horiz-adv-x="377" 
d="M220 195q-94 -1 -94 -89q0 -68 43 -68q24 0 37.5 19.5t13.5 58.5v79zM322 70q0 -29 15 -29q7 0 21 11l13 -11q-38 -48 -82 -48q-49 0 -64 56q-47 -56 -111 -56q-42 0 -67 26t-25 66q0 54 50 88.5t148 42.5v86q0 31 -11 45t-37 14q-21 0 -33.5 -5.5t-12.5 -10.5
q0 -3 3.5 -8t8 -11t8.5 -14.5t4 -18.5q0 -20 -14 -33.5t-35 -13.5q-22 0 -36 14t-14 35q0 38 37.5 63.5t105.5 25.5q71 0 99.5 -29t28.5 -93v-192zM219 609l113 -171h-28l-114 103l-114 -103h-28l113 171h58z" />
    <glyph glyph-name="acute" unicode="&#xb4;" 
d="M197 438h-33l141 146q14 14 24.5 22t23.5 8q15 0 25 -10t10 -25q0 -21 -30 -40z" />
    <glyph glyph-name="adieresis" unicode="&#xe4;" horiz-adv-x="377" 
d="M220 195q-94 -1 -94 -89q0 -68 43 -68q24 0 37.5 19.5t13.5 58.5v79zM322 70q0 -29 15 -29q7 0 21 11l13 -11q-38 -48 -82 -48q-49 0 -64 56q-47 -56 -111 -56q-42 0 -67 26t-25 66q0 54 50 88.5t148 42.5v86q0 31 -11 45t-37 14q-21 0 -33.5 -5.5t-12.5 -10.5
q0 -3 3.5 -8t8 -11t8.5 -14.5t4 -18.5q0 -20 -14 -33.5t-35 -13.5q-22 0 -36 14t-14 35q0 38 37.5 63.5t105.5 25.5q71 0 99.5 -29t28.5 -93v-192zM276 563q20 0 34 -14.5t14 -34.5q0 -21 -13.5 -35t-34.5 -14t-35 14t-14 35q0 20 14.5 34.5t34.5 14.5zM104 563
q20 0 34.5 -14.5t14.5 -34.5q0 -21 -14 -35t-35 -14t-34.5 14t-13.5 35q0 20 14 34.5t34 14.5z" />
    <glyph glyph-name="ae" unicode="&#xe6;" horiz-adv-x="553" 
d="M421 245v38q0 80 -46 80q-29 0 -42 -19t-13 -61v-38h101zM530 120q-6 -58 -49 -94t-107 -36q-84 0 -135 77q-22 -36 -54.5 -55t-70.5 -19q-42 0 -67 26t-25 66q0 54 50 88.5t148 42.5v86q0 31 -11 45t-37 14q-21 0 -33.5 -5.5t-12.5 -10.5q0 -3 3.5 -8t8 -11t8.5 -14.5
t4 -18.5q0 -20 -14 -33.5t-35 -13.5q-22 0 -36 14t-14 35q0 38 37 63.5t103 25.5t99 -27q40 28 87 28q33 0 60.5 -11.5t48 -33t31.5 -52t11 -68.5v-2h-208v-78q0 -61 16.5 -90t60.5 -29q42 0 71 25.5t38 73.5h24zM220 194q-49 -2 -71.5 -22.5t-22.5 -65.5q0 -67 43 -67
q23 0 37 19t14 58v78z" />
    <glyph glyph-name="agrave" unicode="&#xe0;" horiz-adv-x="377" 
d="M220 195q-94 -1 -94 -89q0 -68 43 -68q24 0 37.5 19.5t13.5 58.5v79zM322 70q0 -29 15 -29q7 0 21 11l13 -11q-38 -48 -82 -48q-49 0 -64 56q-47 -56 -111 -56q-42 0 -67 26t-25 66q0 54 50 88.5t148 42.5v86q0 31 -11 45t-37 14q-21 0 -33.5 -5.5t-12.5 -10.5
q0 -3 3.5 -8t8 -11t8.5 -14.5t4 -18.5q0 -20 -14 -33.5t-35 -13.5q-22 0 -36 14t-14 35q0 38 37.5 63.5t105.5 25.5q71 0 99.5 -29t28.5 -93v-192zM276 438h-33l-161 101q-30 19 -30 40q0 15 10 25t25 10q13 0 23.5 -8t24.5 -22z" />
    <glyph glyph-name="ampersand" unicode="&#x26;" horiz-adv-x="588" 
d="M324 562q0 75 -50 75q-22 0 -35.5 -13.5t-13.5 -35.5q0 -20 19 -59.5t56 -99.5q24 15 24 69v64zM202 349q-62 -35 -62 -96q0 -20 8 -50t27 -67q49 -96 101 -96q41 0 70 31zM358 49q-60 -65 -155 -65q-78 0 -123 47t-45 124q0 130 156 217q-61 110 -61 163q0 57 41.5 92.5
t113.5 35.5q31 0 57 -8.5t44.5 -23.5t29 -35.5t10.5 -43.5q0 -42 -29 -76t-87 -67l127 -239q24 34 39 85.5t18 118.5h-59v28h140v-28h-52q-12 -137 -71 -231l62 -115h61v-28h-193z" />
    <glyph glyph-name="aring" unicode="&#xe5;" horiz-adv-x="377" 
d="M193 607q-30 0 -51.5 -21t-21.5 -52q0 -30 21.5 -51.5t51.5 -21.5q31 0 52 21.5t21 51.5q0 31 -21 52t-52 21zM193 652q25 0 46 -9t37 -25t25 -37.5t9 -46.5t-9 -46.5t-25 -37t-37 -24.5t-46 -9t-46.5 9t-37.5 24.5t-25 37t-9 46.5t9 46.5t25 37.5t37.5 25t46.5 9z
M220 195q-94 -1 -94 -89q0 -68 43 -68q24 0 37.5 19.5t13.5 58.5v79zM322 70q0 -29 15 -29q7 0 21 11l13 -11q-38 -48 -82 -48q-49 0 -64 56q-47 -56 -111 -56q-42 0 -67 26t-25 66q0 54 50 88.5t148 42.5v86q0 31 -11 45t-37 14q-21 0 -33.5 -5.5t-12.5 -10.5q0 -3 3.5 -8
t8 -11t8.5 -14.5t4 -18.5q0 -20 -14 -33.5t-35 -13.5q-22 0 -36 14t-14 35q0 38 37.5 63.5t105.5 25.5q71 0 99.5 -29t28.5 -93v-192z" />
    <glyph glyph-name="asciicircum" unicode="^" horiz-adv-x="1000" 
d="M797 438h-51l-247 194l-247 -194h-51l246 276h105z" />
    <glyph glyph-name="asciitilde" unicode="~" horiz-adv-x="833" 
d="M747 293q-49 -34 -95 -51.5t-91 -17.5q-44 0 -93 17q-52 17 -98.5 33t-94.5 16q-44 0 -89 -20t-99 -58v91q103 70 189 70q43 0 77.5 -9t65.5 -20q37 -13 71.5 -24.5t71.5 -11.5q44 0 89 19t96 56v-90z" />
    <glyph glyph-name="asterisk" unicode="*" horiz-adv-x="440" 
d="M225 496q17 10 31.5 24.5t27.5 34.5q13 19 23.5 31.5t31.5 12.5q17 0 30.5 -15t13.5 -32q0 -28 -15.5 -36.5t-46.5 -10.5q-21 -2 -43 -5.5t-45 -15.5q19 -11 41 -15t48 -6q30 -2 45.5 -10.5t15.5 -33.5q0 -20 -14 -35t-32 -15q-16 0 -26.5 10.5t-21.5 26.5t-25 34t-37 33
q1 -24 7 -43t13 -34t13 -27t6 -22q0 -17 -12 -29.5t-34 -12.5q-20 0 -32.5 11t-12.5 31q0 10 5.5 22t12.5 27t13 33.5t8 42.5q-34 -21 -59 -59q-12 -18 -22 -30.5t-33 -12.5q-18 0 -31 15.5t-13 34.5q0 17 13 28.5t35 13.5q24 2 50 4.5t53 16.5q-30 16 -55.5 18.5t-48.5 4.5
q-21 2 -34 13t-13 29q0 20 14 35.5t31 15.5t27.5 -10t21 -25t24.5 -33t39 -35q-2 24 -8 43t-13 33.5t-12.5 26.5t-5.5 23q0 19 12.5 30.5t32.5 11.5q21 0 34 -12t13 -31q0 -9 -5.5 -21t-12.5 -27t-14 -34t-9 -43z" />
    <glyph glyph-name="at" unicode="@" horiz-adv-x="986" 
d="M662 485h84l-84 -301q-3 -12 -5.5 -23.5t-2.5 -23.5q0 -50 40 -50q14 0 38.5 9.5t47.5 28.5q54 43 82.5 108t28.5 145q0 68 -24.5 124t-68.5 95.5t-107 61.5t-139 22q-85 0 -160.5 -31t-133.5 -91q-120 -122 -120 -314q0 -167 117 -264q51 -43 119.5 -66t148.5 -23
q161 0 305 102l18 -23q-145 -109 -323 -109q-94 0 -171 23t-133 65q-74 56 -112.5 135.5t-38.5 176.5q0 99 41.5 185.5t122.5 153.5q66 54 144.5 82t169.5 28q85 0 154 -24t118 -68.5t75.5 -106.5t26.5 -138q0 -79 -29 -146t-82 -115q-62 -54 -128 -54q-48 0 -74.5 25.5
t-29.5 74.5q-31 -51 -66.5 -75t-81.5 -24q-66 0 -104 45t-38 121q0 54 23.5 106t69.5 96q34 32 72.5 48.5t78.5 16.5q89 0 106 -91zM610 377q0 42 -18.5 65.5t-48.5 23.5q-33 0 -58.5 -23t-50.5 -71q-29 -56 -43 -105.5t-14 -87.5q0 -42 18.5 -65.5t45.5 -23.5q32 0 57.5 21
t51.5 64q29 51 44.5 106t15.5 96z" />
    <glyph glyph-name="atilde" unicode="&#xe3;" horiz-adv-x="377" 
d="M220 195q-94 -1 -94 -89q0 -68 43 -68q24 0 37.5 19.5t13.5 58.5v79zM322 70q0 -29 15 -29q7 0 21 11l13 -11q-38 -48 -82 -48q-49 0 -64 56q-47 -56 -111 -56q-42 0 -67 26t-25 66q0 54 50 88.5t148 42.5v86q0 31 -11 45t-37 14q-21 0 -33.5 -5.5t-12.5 -10.5
q0 -3 3.5 -8t8 -11t8.5 -14.5t4 -18.5q0 -20 -14 -33.5t-35 -13.5q-22 0 -36 14t-14 35q0 38 37.5 63.5t105.5 25.5q71 0 99.5 -29t28.5 -93v-192zM330 584q-19 -100 -95 -100q-14 0 -36 5l-53 13q-12 3 -28 3q-17 0 -26.5 -10.5t-16.5 -33.5h-25q18 104 96 104q18 0 31 -4
l54 -14q18 -5 27 -5q19 0 29 10t17 32h26z" />
    <glyph glyph-name="b" unicode="b" horiz-adv-x="427" 
d="M166 156q0 -70 20.5 -106t52.5 -36q30 0 39.5 27t9.5 84v114q0 63 -7.5 90t-36.5 27q-30 0 -54 -38t-24 -112v-50zM16 25h46v602h-46v26h62q20 0 42 1.5t46 5.5v-343q18 32 43.5 48.5t55.5 16.5q28 0 53 -14.5t44 -40t30 -60t11 -75.5q0 -47 -11.5 -84.5t-31 -63.5
t-46.5 -40.5t-58 -14.5q-64 0 -99 66v-63q-24 5 -49 6.5t-54 1.5h-38v25z" />
    <glyph glyph-name="backslash" unicode="\" horiz-adv-x="278" 
d="M-24 664h53l308 -757h-53z" />
    <glyph glyph-name="bar" unicode="|" 
d="M294 -236h-87v1000h87v-1000z" />
    <glyph glyph-name="braceleft" unicode="{" 
d="M415 712q-34 0 -55.5 -7t-33.5 -22.5t-16 -40t-4 -59.5v-67q0 -47 -4.5 -82t-18 -59.5t-39 -40t-67.5 -24.5q42 -9 67.5 -24.5t39 -40t18 -59.5t4.5 -82v-67q0 -35 4 -59.5t16 -39.5t33.5 -22t55.5 -7v-28h-5q-55 0 -91.5 8.5t-58.5 28.5t-31 52t-9 80v98q0 38 -6 64
t-21 43.5t-40.5 26.5t-65.5 12v33q40 4 66 13t41 25.5t20.5 43t5.5 64.5v98q0 48 9 80.5t31.5 52t60 28t94.5 8.5v-28z" />
    <glyph glyph-name="braceright" unicode="}" 
d="M281 473q0 -38 5.5 -64.5t20.5 -43t41 -25.5t66 -13v-33q-40 -3 -66 -12t-41 -26.5t-20.5 -43.5t-5.5 -64v-98q0 -48 -9 -80t-31 -52t-59 -28.5t-92 -8.5h-5v28q34 0 55.5 7t33.5 22t16 39.5t4 59.5v67q0 47 4 82t17.5 59.5t39 40t68.5 24.5q-43 9 -68.5 24.5t-39 40.5
t-17.5 59.5t-4 81.5v67q0 35 -4 59.5t-16 40t-33.5 22.5t-55.5 7v28h5q55 0 92 -8.5t59 -28.5t31 -52t9 -80v-98z" />
    <glyph glyph-name="bracketleft" unicode="[" horiz-adv-x="299" 
d="M296 -192v-26h-217v871h217v-26h-129v-819h129z" />
    <glyph glyph-name="bracketright" unicode="]" horiz-adv-x="299" 
d="M132 627h-130v26h218v-871h-218v26h130v819z" />
    <glyph glyph-name="breve" unicode="&#x2d8;" 
d="M132 590q8 -37 36.5 -53t81.5 -16q52 0 80.5 15.5t36.5 53.5h25q-20 -133 -142 -133q-60 0 -96.5 33.5t-46.5 99.5h25z" />
    <glyph glyph-name="bullet" unicode="&#x2022;" horiz-adv-x="590" 
d="M150 372q0 30 11.5 56t31 45.5t46 31t56.5 11.5t56 -11.5t45.5 -31t31 -45.5t11.5 -56t-11.5 -56t-31 -46t-46 -31.5t-56.5 -11.5t-56.5 11.5t-46 31t-30.5 46t-11 56.5z" />
    <glyph glyph-name="c" unicode="c" horiz-adv-x="331" 
d="M320 114q-6 -58 -40.5 -90.5t-88.5 -32.5q-36 0 -67 13.5t-53 38t-34.5 60t-12.5 79.5q0 45 13.5 82t37 63.5t55.5 41t70 14.5q25 0 46.5 -8t36.5 -21t23.5 -30.5t8.5 -36.5q0 -27 -15.5 -44t-37.5 -17t-35.5 14t-13.5 35q0 16 6.5 25.5t15 15.5t15 9.5t6.5 8.5
q0 11 -14.5 20t-38.5 9q-35 0 -49.5 -29t-14.5 -90v-94q0 -66 15.5 -98t57.5 -32q32 0 54.5 24t30.5 70h23z" />
    <glyph glyph-name="caron" unicode="&#x2c7;" 
d="M136 609l114 -103l114 103h28l-113 -171h-58l-113 171h28z" />
    <glyph glyph-name="ccedilla" unicode="&#xe7;" horiz-adv-x="331" 
d="M320 114q-6 -58 -40.5 -90.5t-88.5 -32.5q-36 0 -67 13.5t-53 38t-34.5 60t-12.5 79.5q0 45 13.5 82t37 63.5t55.5 41t70 14.5q25 0 46.5 -8t36.5 -21t23.5 -30.5t8.5 -36.5q0 -27 -15.5 -44t-37.5 -17t-35.5 14t-13.5 35q0 16 6.5 25.5t15 15.5t15 9.5t6.5 8.5
q0 11 -14.5 20t-38.5 9q-35 0 -49.5 -29t-14.5 -90v-94q0 -66 15.5 -98t57.5 -32q32 0 54.5 24t30.5 70h23zM174 0v-55q16 3 30 3q43 0 66 -21.5t23 -58.5q0 -39 -28 -62.5t-79 -23.5q-32 0 -66.5 10t-76.5 27l16 38q33 -19 61 -27t48 -8q60 0 60 45q0 20 -14.5 32t-41.5 12
q-13 0 -29 -3v92h31z" />
    <glyph glyph-name="cedilla" unicode="&#xb8;" 
d="M242 0v-55q16 3 30 3q43 0 66 -21.5t23 -58.5q0 -39 -28 -62.5t-79 -23.5q-32 0 -66.5 10t-76.5 27l16 38q33 -19 61 -27t48 -8q60 0 60 45q0 20 -14.5 32t-41.5 12q-13 0 -29 -3v92h31z" />
    <glyph glyph-name="cent" unicode="&#xa2;" horiz-adv-x="398" 
d="M244 246q-7 11 -7 26q0 18 7 28t15 16t15 9.5t7 8.5q0 11 -14.5 20t-38.5 9q-35 0 -49.5 -29t-14.5 -90v-94q0 -67 14 -92zM345 114q-5 -57 -40 -90.5t-88 -33.5q-13 0 -22.5 2t-15.5 4l-45 -125h-30l49 132q-50 20 -77 66t-27 113q0 45 13.5 82t36.5 63.5t55 41t70 14.5
q37 0 69 -18l42 118h30l-49 -135q24 -33 24 -62q0 -27 -14.5 -43t-37.5 -16q-4 0 -9.5 0.5t-11.5 2.5l-70 -197q16 -13 39 -13q69 0 86 94h23z" />
    <glyph glyph-name="circumflex" unicode="&#x2c6;" 
d="M279 609l113 -171h-28l-114 103l-114 -103h-28l113 171h58z" />
    <glyph glyph-name="colon" unicode=":" horiz-adv-x="222" 
d="M111 384q29 0 48.5 -19t19.5 -47q0 -27 -19.5 -46t-48.5 -19t-48.5 19t-19.5 46q0 28 19.5 47t48.5 19zM111 122q29 0 48.5 -19t19.5 -47q0 -27 -19.5 -46t-48.5 -19t-48.5 19t-19.5 46q0 28 19.5 47t48.5 19z" />
    <glyph glyph-name="comma" unicode="," horiz-adv-x="199" 
d="M56 -133q79 75 79 134v8q-17 -25 -46 -25q-25 0 -41.5 17.5t-16.5 46.5q0 32 19.5 51.5t48.5 19.5q31 0 52 -23.5t21 -63.5q0 -42 -24.5 -88.5t-75.5 -93.5z" />
    <glyph glyph-name="copyright" unicode="&#xa9;" horiz-adv-x="822" 
d="M570 381h-23q-16 66 -50 99.5t-84 33.5q-115 0 -115 -180q0 -91 32 -138t92 -47q80 0 135 85l21 -13q-61 -104 -171 -104q-43 0 -80.5 16t-65 44.5t-43 67t-15.5 82.5q0 45 15.5 84t43 67.5t64.5 44.5t80 16q24 0 42.5 -5t32 -11t23 -11t15.5 -5q14 0 20.5 6.5t9.5 23.5
h20zM715 331q0 61 -23.5 118t-66.5 100q-42 42 -97.5 65t-115.5 23q-61 0 -117 -23t-99 -67q-44 -45 -66.5 -100t-22.5 -116q0 -63 23 -117.5t67 -98.5q89 -89 214 -89q62 0 116.5 22.5t97.5 66.5q44 45 67 100.5t23 115.5zM412 684q69 0 133.5 -27t113.5 -76
q50 -50 77 -115t27 -135q0 -69 -26.5 -133.5t-77.5 -115.5q-50 -51 -113 -76.5t-135 -25.5q-71 0 -134 25.5t-114 76.5t-77.5 114t-26.5 135q0 70 26 134t77 115q50 50 114.5 77t135.5 27z" />
    <glyph glyph-name="currency" unicode="&#xa4;" horiz-adv-x="606" 
d="M446 432q0 29 -11 54.5t-30.5 45t-45.5 31t-55 11.5t-55 -11.5t-45.5 -31t-30.5 -45t-11 -54.5t11 -55t30.5 -45t45 -30t55.5 -11t55.5 11t45 30t30.5 45t11 55zM181 599q53 40 122 40q70 0 123 -40l99 99l46 -45l-100 -100q39 -53 39 -121q0 -69 -39 -121l100 -100
l-46 -45l-99 100q-55 -40 -122 -40q-70 0 -123 40l-99 -100l-45 45l99 100q-39 52 -39 121q0 68 39 121l-99 100l45 45z" />
    <glyph glyph-name="d" unicode="d" horiz-adv-x="427" 
d="M140 125q0 -57 10 -84t39 -27q32 0 52.5 36t20.5 106v49q0 74 -24 112t-58 38q-26 0 -33 -28t-7 -89v-113zM270 61q-14 -35 -38.5 -53.5t-56.5 -18.5q-33 0 -60.5 14.5t-48 40.5t-31.5 62.5t-11 81.5q0 43 11.5 79t31 61.5t45.5 39.5t56 14q29 0 54.5 -19t39.5 -46v310
h-47v26h63q23 0 45.5 1.5t42.5 5.5v-635h46v-25h-38q-29 0 -55 -1.5t-49 -6.5v69z" />
    <glyph glyph-name="dagger" unicode="&#x2020;" horiz-adv-x="440" 
d="M163 236q45 81 45 171v6q-21 -1 -38 -8t-32 -14.5t-29 -14t-28 -6.5q-23 0 -36.5 14.5t-13.5 39.5t15 39.5t37 14.5q15 0 29 -6t29 -13.5t31.5 -14t35.5 -6.5v9q0 31 -6 55.5t-13.5 44.5t-13.5 35.5t-6 27.5q0 24 14.5 39t36.5 15q23 0 37.5 -15t14.5 -38
q0 -9 -6.5 -23.5t-14 -35t-13.5 -47t-6 -60.5v-7q21 0 38 6t31.5 13.5t28 14t27.5 6.5q24 0 37.5 -13.5t13.5 -39.5q0 -27 -14 -41.5t-37 -14.5q-14 0 -27.5 6t-28 13.5t-31.5 14.5t-39 9q4 -111 47 -176q-20 -78 -31 -182t-12 -237h-27q-2 112 -12 215.5t-33 203.5z" />
    <glyph glyph-name="daggerdbl" unicode="&#x2021;" horiz-adv-x="440" 
d="M208 413q-21 -1 -38 -8t-32 -14.5t-29 -14t-28 -6.5q-23 0 -36.5 14.5t-13.5 39.5t15 39.5t38 14.5q15 0 29 -6t28.5 -13.5t31 -13.5t35.5 -7v9q0 31 -6 55.5t-13 44.5t-13 35.5t-6 27.5q0 24 14.5 39t35.5 15q24 0 38 -15t14 -38q0 -9 -6.5 -24t-14 -35.5t-13.5 -47
t-6 -60.5v-6q21 0 38 6t31.5 13.5t28 14t27.5 6.5q51 0 51 -53q0 -56 -53 -56q-13 0 -26 6t-27 13.5t-31.5 14.5t-39.5 9q3 -57 14 -100t33 -76q-23 -38 -35 -81t-12 -91v-6q21 1 38 7.5t32 14.5t29 14.5t28 6.5q23 0 36.5 -14t13.5 -39t-14.5 -40t-37.5 -15q-15 0 -29 6
t-29 13.5t-31.5 13.5t-35.5 7v-9q0 -31 6 -55.5t13.5 -44.5t13.5 -35.5t6 -27.5q0 -24 -14.5 -39t-36.5 -15q-23 0 -37 15t-14 38q0 9 6 23.5t13.5 34.5t13.5 46t6 59v10q-21 0 -38 -6t-31.5 -13.5t-28 -13.5t-27.5 -6q-51 0 -51 55q0 26 14 39.5t37 13.5q14 0 27 -6
t28 -13.5t32 -14.5t38 -9q0 100 -44 177q45 82 45 171v6z" />
    <glyph glyph-name="degree" unicode="&#xb0;" horiz-adv-x="329" 
d="M255 569q0 38 -26 64t-64 26t-64.5 -26t-26.5 -64t26.5 -64.5t64.5 -26.5q19 0 35.5 7.5t28.5 20t19 29t7 34.5zM165 713q30 0 56 -11.5t45.5 -31t31 -46t11.5 -56.5q0 -29 -11.5 -55.5t-31 -46t-46 -31t-56.5 -11.5t-56 11t-45.5 30.5t-30.5 46t-11 56.5t11 56.5
t30.5 46t46 31t56.5 11.5z" />
    <glyph glyph-name="dieresis" unicode="&#xa8;" 
d="M336 563q20 0 34 -14.5t14 -34.5q0 -21 -13.5 -35t-34.5 -14t-35 14t-14 35q0 20 14.5 34.5t34.5 14.5zM164 563q20 0 34.5 -14.5t14.5 -34.5q0 -21 -14 -35t-35 -14t-34.5 14t-13.5 35q0 20 14 34.5t34 14.5z" />
    <glyph glyph-name="divide" unicode="&#xf7;" horiz-adv-x="833" 
d="M417 179q28 0 47.5 -19.5t19.5 -47.5q0 -27 -19 -46.5t-48 -19.5t-48 19t-19 47t20 47.5t47 19.5zM709 258h-585v81h585v-81zM417 551q28 0 47.5 -20t19.5 -48q0 -27 -19 -46.5t-48 -19.5t-48 19t-19 47t20 48t47 20z" />
    <glyph glyph-name="dollar" unicode="$" horiz-adv-x="398" 
d="M184 599q-45 -7 -70 -33.5t-25 -61.5q0 -62 95 -99v194zM212 25q51 9 79 41t28 78q0 41 -26 68.5t-81 50.5v-238zM184 4q-72 2 -114 38.5t-42 89.5q0 35 17.5 55t45.5 20q19 0 33 -15t14 -38q0 -37 -41 -56q-11 -5 -17.5 -7t-6.5 -8q0 -8 8 -18t22 -19t34.5 -15t46.5 -6
v247q-143 60 -143 181q0 69 36.5 111t106.5 55v69h28v-69q35 -1 63 -11t47.5 -25.5t30 -36.5t10.5 -43q0 -28 -16 -45t-40 -17q-23 0 -37.5 14.5t-14.5 37.5q0 37 42 52q6 2 10.5 3t4.5 5t-6.5 12t-19 15.5t-31.5 13t-43 5.5v-205q81 -34 119 -82t38 -120q0 -77 -41 -127
t-116 -62v-102h-28v103z" />
    <glyph glyph-name="dotaccent" unicode="&#x2d9;" 
d="M250 566q21 0 36 -15.5t15 -36.5t-14.5 -36t-36.5 -15q-21 0 -36 14.5t-15 36.5q0 21 15.5 36.5t35.5 15.5z" />
    <glyph glyph-name="dotlessi" unicode="&#x131;" horiz-adv-x="229" 
d="M210 25v-25h-186v25h41v324h-41v26h48q26 0 50 2t47 6v-358h41z" />
    <glyph glyph-name="e" unicode="e" horiz-adv-x="373" 
d="M241 245v38q0 80 -47 80q-29 0 -41.5 -19t-12.5 -61v-38h101zM350 120q-6 -58 -49 -94t-107 -36q-35 0 -66 14.5t-54 41t-36.5 62.5t-13.5 79t13.5 79.5t37 62.5t55 41t66.5 15q33 0 60.5 -11.5t48 -33t31.5 -52t11 -68.5v-2h-207v-78q0 -61 16.5 -90t60.5 -29
q42 0 70.5 25.5t37.5 73.5h25z" />
    <glyph glyph-name="eacute" unicode="&#xe9;" horiz-adv-x="373" 
d="M241 245v38q0 80 -47 80q-29 0 -41.5 -19t-12.5 -61v-38h101zM350 120q-6 -58 -49 -94t-107 -36q-35 0 -66 14.5t-54 41t-36.5 62.5t-13.5 79t13.5 79.5t37 62.5t55 41t66.5 15q33 0 60.5 -11.5t48 -33t31.5 -52t11 -68.5v-2h-207v-78q0 -61 16.5 -90t60.5 -29
q42 0 70.5 25.5t37.5 73.5h25zM141 438h-33l141 146q14 14 24.5 22t23.5 8q15 0 25 -10t10 -25q0 -21 -30 -40z" />
    <glyph glyph-name="ecircumflex" unicode="&#xea;" horiz-adv-x="373" 
d="M241 245v38q0 80 -47 80q-29 0 -41.5 -19t-12.5 -61v-38h101zM350 120q-6 -58 -49 -94t-107 -36q-35 0 -66 14.5t-54 41t-36.5 62.5t-13.5 79t13.5 79.5t37 62.5t55 41t66.5 15q33 0 60.5 -11.5t48 -33t31.5 -52t11 -68.5v-2h-207v-78q0 -61 16.5 -90t60.5 -29
q42 0 70.5 25.5t37.5 73.5h25zM223 609l113 -171h-28l-114 103l-114 -103h-28l113 171h58z" />
    <glyph glyph-name="edieresis" unicode="&#xeb;" horiz-adv-x="373" 
d="M241 245v38q0 80 -47 80q-29 0 -41.5 -19t-12.5 -61v-38h101zM350 120q-6 -58 -49 -94t-107 -36q-35 0 -66 14.5t-54 41t-36.5 62.5t-13.5 79t13.5 79.5t37 62.5t55 41t66.5 15q33 0 60.5 -11.5t48 -33t31.5 -52t11 -68.5v-2h-207v-78q0 -61 16.5 -90t60.5 -29
q42 0 70.5 25.5t37.5 73.5h25zM280 563q20 0 34 -14.5t14 -34.5q0 -21 -13.5 -35t-34.5 -14t-35 14t-14 35q0 20 14.5 34.5t34.5 14.5zM108 563q20 0 34.5 -14.5t14.5 -34.5q0 -21 -14 -35t-35 -14t-34.5 14t-13.5 35q0 20 14 34.5t34 14.5z" />
    <glyph glyph-name="egrave" unicode="&#xe8;" horiz-adv-x="373" 
d="M241 245v38q0 80 -47 80q-29 0 -41.5 -19t-12.5 -61v-38h101zM350 120q-6 -58 -49 -94t-107 -36q-35 0 -66 14.5t-54 41t-36.5 62.5t-13.5 79t13.5 79.5t37 62.5t55 41t66.5 15q33 0 60.5 -11.5t48 -33t31.5 -52t11 -68.5v-2h-207v-78q0 -61 16.5 -90t60.5 -29
q42 0 70.5 25.5t37.5 73.5h25zM280 438h-33l-161 101q-30 19 -30 40q0 15 10 25t25 10q13 0 23.5 -8t24.5 -22z" />
    <glyph glyph-name="eight" unicode="8" horiz-adv-x="398" 
d="M153 101q0 -45 10 -66t36 -21q27 0 36.5 21t9.5 66v127q0 45 -10 66t-36 21t-36 -21t-10 -66v-127zM160 422q0 -39 8.5 -58t30.5 -19q23 0 31 19t8 58v111q0 39 -8.5 58t-30.5 19q-23 0 -31 -19t-8 -58v-111zM168 335q-125 37 -125 150q0 31 11.5 57.5t32 46t49 31
t63.5 11.5q34 0 63 -11.5t49.5 -31t32 -46t11.5 -57.5q0 -113 -125 -150v-8q65 -15 100 -59t35 -108q0 -36 -12.5 -67t-35 -53.5t-52.5 -35.5t-66 -13t-66 12.5t-52.5 35t-35 53.5t-12.5 68q0 64 35.5 108.5t99.5 58.5v8z" />
    <glyph glyph-name="ellipsis" unicode="&#x2026;" horiz-adv-x="1000" 
d="M834 122q29 0 48.5 -19t19.5 -47q0 -27 -19.5 -46t-48.5 -19t-49 19t-20 46q0 28 20 47t49 19zM500 122q29 0 48.5 -19t19.5 -47q0 -27 -19.5 -46t-48.5 -19t-49 19t-20 46q0 28 20 47t49 19zM167 122q29 0 48.5 -19t19.5 -47q0 -27 -19.5 -46t-48.5 -19t-49 19t-20 46
q0 28 20 47t49 19z" />
    <glyph glyph-name="emdash" unicode="&#x2014;" horiz-adv-x="1000" 
d="M0 227h1000v-66h-1000v66z" />
    <glyph glyph-name="endash" unicode="&#x2013;" 
d="M0 227h500v-66h-500v66z" />
    <glyph glyph-name="equal" unicode="=" horiz-adv-x="833" 
d="M709 157h-585v81h585v-81zM709 358h-585v82h585v-82z" />
    <glyph glyph-name="exclam" unicode="!" horiz-adv-x="259" 
d="M129 122q29 0 49 -19t20 -47q0 -27 -20 -46t-49 -19t-48.5 19t-19.5 46q0 28 19.5 47t48.5 19zM120 209q-1 80 -9 144t-17 112t-16.5 80.5t-7.5 50.5q0 68 59 68q29 0 44.5 -17.5t15.5 -50.5q0 -17 -7.5 -49.5t-16.5 -80.5t-17 -112t-9 -145h-19z" />
    <glyph glyph-name="exclamdown" unicode="&#xa1;" horiz-adv-x="259" 
d="M129 532q-29 0 -48.5 19.5t-19.5 47.5q0 27 19.5 46t48.5 19t48.5 -19t19.5 -46q0 -28 -19.5 -47.5t-48.5 -19.5zM138 445q1 -80 9 -144t17 -112t16.5 -80t7.5 -50q0 -33 -15 -51t-44 -18t-44.5 17.5t-15.5 51.5q0 17 7.5 49.5t17 80.5t17.5 111.5t9 144.5h18z" />
    <glyph glyph-name="f" unicode="f" horiz-adv-x="252" 
d="M19 25h55v322h-55v28h55v20q0 265 152 265q39 0 63.5 -23t24.5 -53q0 -24 -13 -37.5t-35 -13.5q-21 0 -33 12t-12 33q0 13 3 21.5t7 14t7 8t3 3.5q0 4 -6.5 8.5t-16.5 4.5q-22 0 -31 -27.5t-9 -84.5v-151h69v-28h-69v-322h58v-25h-217v25z" />
    <glyph glyph-name="five" unicode="5" horiz-adv-x="398" 
d="M76 603l26 20h161q26 0 40.5 5t20.5 25h23q-10 -39 -18.5 -66.5t-20.5 -44.5q-11 -15 -34 -18t-60 -3h-118l-9 -161q38 13 87 13q44 0 80 -14t61.5 -38.5t39.5 -59.5t14 -77q0 -41 -15.5 -76t-43.5 -61t-67 -41t-85 -15q-60 0 -97.5 33.5t-37.5 84.5q0 30 17.5 49
t40.5 19q26 0 40.5 -15.5t14.5 -41.5q0 -33 -25 -50q-10 -7 -18.5 -9.5t-8.5 -11.5q0 -10 17 -21t43 -11q95 0 95 161q0 86 -26 126.5t-83 40.5q-17 0 -33 -3.5t-34 -9.5z" />
    <glyph glyph-name="florin" unicode="&#x192;" horiz-adv-x="398" 
d="M47 335v28h99q8 148 51 222t115 74q37 0 61 -21t24 -51q0 -24 -14 -38.5t-37 -14.5q-20 0 -32 11.5t-12 30.5q0 13 5 22t11 15t11 10t5 7q0 2 -5 5t-14 3q-40 0 -54.5 -43t-14.5 -132q0 -45 3 -100h102v-28h-101q-2 -150 -9.5 -260.5t-27 -184t-52.5 -109.5t-84 -36
q-33 0 -54 20t-21 50q0 26 14.5 41.5t34.5 15.5q18 0 30.5 -12.5t12.5 -29.5q0 -12 -4.5 -20.5t-9.5 -14.5t-9.5 -11t-4.5 -9q0 -10 15 -10q37 0 50.5 47t13.5 143q0 56 -2 112.5t-2 115.5q0 68 3 152h-97z" />
    <glyph glyph-name="four" unicode="4" horiz-adv-x="398" 
d="M194 194v313q-53 -97 -89 -175.5t-58 -137.5h147zM126 25h68v141h-169v40q66 150 118 254.5t88 166.5h68v-433h45v66h20v-159h-20v65h-45v-141h53v-25h-226v25z" />
    <glyph glyph-name="fraction" unicode="&#x2044;" horiz-adv-x="167" 
d="M285 632h48l-452 -641h-48z" />
    <glyph glyph-name="fraction" unicode="&#x2215;" horiz-adv-x="167" 
d="M285 632h48l-452 -641h-48z" />
    <glyph glyph-name="g" unicode="g" horiz-adv-x="361" 
d="M134 209q0 -35 10 -51.5t36 -16.5t35.5 16.5t9.5 51.5v86q0 35 -9.5 51.5t-35.5 16.5t-36 -16.5t-10 -51.5v-86zM124 -50q-22 -28 -22 -62q0 -41 27 -67t73 -26q27 0 50.5 9t40.5 23.5t26.5 33.5t9.5 39q0 32 -19.5 41t-60.5 9h-125zM104 -46q-32 8 -50.5 33t-18.5 59
q0 33 20 57.5t57 35.5q-36 17 -55.5 45.5t-19.5 65.5q0 28 11.5 52t31 42t45.5 28t56 10q55 0 94 -30q32 47 64 47q16 0 26 -9.5t10 -25.5q0 -14 -8 -23t-20 -9q-14 0 -22 9t-15 9q-10 0 -19 -13q16 -17 25 -37.5t9 -47.5q0 -59 -34 -92t-102 -38q-26 -2 -47 -3t-36 -5
t-23.5 -12t-8.5 -23q0 -35 65 -35q26 0 52 2t52 2q61 0 89.5 -26.5t28.5 -85.5q0 -36 -13.5 -66.5t-37.5 -52.5t-58 -34.5t-75 -12.5q-65 0 -102.5 28.5t-37.5 67.5q0 58 67 88z" />
    <glyph glyph-name="germandbls" unicode="&#xdf;" horiz-adv-x="459" 
d="M17 25h45v431q0 100 44.5 151.5t129.5 51.5q72 0 114.5 -41t42.5 -111q0 -54 -26 -87.5t-82 -52.5q74 -20 109 -65t35 -120q0 -44 -12 -79.5t-32 -60.5t-48 -38.5t-59 -13.5q-37 0 -60 21.5t-23 56.5q0 24 11 37.5t31 13.5q19 0 30 -11.5t11 -29.5q0 -12 -4 -19.5
t-9.5 -13t-9.5 -10t-4 -9.5q0 -6 6 -10.5t17 -4.5q24 0 34 22.5t10 68.5v130q0 25 -1.5 43t-6 31.5t-13.5 22.5t-24 15q-9 4 -18.5 4.5t-17 1t-12 3t-4.5 9.5t4.5 10t11 4t14.5 1.5t14 3.5q17 8 23.5 28.5t6.5 56.5v87q0 85 -64 85q-65 0 -65 -111v-527h-149v25z" />
    <glyph glyph-name="grave" unicode="`" 
d="M336 438h-33l-161 101q-30 19 -30 40q0 15 10 25t25 10q13 0 23.5 -8t24.5 -22z" />
    <glyph glyph-name="greater" unicode="&#x3e;" horiz-adv-x="833" 
d="M704 259l-575 -236v89l456 186l-456 186v90l575 -237v-78z" />
    <glyph glyph-name="guillemotleft" unicode="&#xab;" horiz-adv-x="431" 
d="M211 194q89 71 130 112.5t49 41.5q10 0 10 -11q0 -8 -22 -44.5t-73 -98.5q50 -62 72.5 -98t22.5 -44q0 -11 -10 -11q-8 0 -49.5 41.5t-129.5 111.5zM42 194q89 71 130 112.5t49 41.5q10 0 10 -11q0 -8 -22 -44.5t-73 -98.5q50 -62 72.5 -98t22.5 -44q0 -11 -10 -11
q-8 0 -49.5 41.5t-129.5 111.5z" />
    <glyph glyph-name="guillemotright" unicode="&#xbb;" horiz-adv-x="431" 
d="M399 194q-89 -71 -130 -112t-49 -41q-4 0 -7.5 3t-3.5 8q0 8 23 44.5t73 97.5q-51 61 -73.5 98t-22.5 45q0 5 3.5 8t8.5 3q4 0 15.5 -11t33 -31t53.5 -48.5t76 -63.5zM230 194q-89 -71 -130 -112t-49 -41q-4 0 -7.5 3t-3.5 8q0 8 23 44.5t73 97.5q-51 61 -73.5 98
t-22.5 45q0 5 3.5 8t8.5 3q4 0 15.5 -11t33 -31t53.5 -48.5t76 -63.5z" />
    <glyph glyph-name="guilsinglleft" unicode="&#x2039;" horiz-adv-x="262" 
d="M42 194q89 71 130 112.5t49 41.5q10 0 10 -11q0 -8 -22 -44.5t-73 -98.5q50 -62 72.5 -98t22.5 -44q0 -11 -10 -11q-8 0 -49.5 41.5t-129.5 111.5z" />
    <glyph glyph-name="guilsinglright" unicode="&#x203a;" horiz-adv-x="262" 
d="M230 194q-89 -71 -130 -112t-49 -41q-4 0 -7.5 3t-3.5 8q0 8 23 44.5t73 97.5q-51 61 -73.5 98t-22.5 45q0 5 3.5 8t8.5 3q4 0 15.5 -11t33 -31t53.5 -48.5t76 -63.5z" />
    <glyph glyph-name="h" unicode="h" horiz-adv-x="435" 
d="M24 25h37v601h-37v26h44q26 0 50 2t47 6v-346q21 32 51 49.5t62 17.5q33 0 52.5 -10t30.5 -30.5t14.5 -51t3.5 -71.5v-193h37v-25h-178v25h37v259q0 29 -8 41.5t-29 12.5q-73 0 -73 -149v-164h37v-25h-178v25z" />
    <glyph glyph-name="hungarumlaut" unicode="&#x2dd;" 
d="M303 438h-29l88 141q22 35 50 35q12 0 20.5 -8.5t8.5 -20.5q0 -22 -22 -42zM184 438h-28l70 137q11 20 21 29.5t24 9.5t23.5 -9t9.5 -23q0 -16 -20 -38z" />
    <glyph glyph-name="hyphen" unicode="-" horiz-adv-x="336" 
d="M37 242h262v-97h-262v97z" />
    <glyph glyph-name="hyphen" unicode="&#xad;" horiz-adv-x="336" 
d="M37 242h262v-97h-262v97z" />
    <glyph glyph-name="i" unicode="i" horiz-adv-x="229" 
d="M210 25v-25h-186v25h41v324h-41v26h48q26 0 50 2t47 6v-358h41zM116 617q25 0 42 -16.5t17 -40.5q0 -23 -17 -40t-42 -17t-42 17t-17 40q0 24 17 40.5t42 16.5z" />
    <glyph glyph-name="iacute" unicode="&#xed;" horiz-adv-x="229" 
d="M210 25v-25h-186v25h41v324h-41v26h48q26 0 50 2t47 6v-358h41zM59 438h-33l141 146q14 14 24.5 22t23.5 8q15 0 25 -10t10 -25q0 -21 -30 -40z" />
    <glyph glyph-name="icircumflex" unicode="&#xee;" horiz-adv-x="229" 
d="M210 25v-25h-186v25h41v324h-41v26h48q26 0 50 2t47 6v-358h41zM141 609l113 -171h-28l-114 103l-114 -103h-28l113 171h58z" />
    <glyph glyph-name="idieresis" unicode="&#xef;" horiz-adv-x="229" 
d="M210 25v-25h-186v25h41v324h-41v26h48q26 0 50 2t47 6v-358h41zM198 563q20 0 34 -14.5t14 -34.5q0 -21 -13.5 -35t-34.5 -14t-35 14t-14 35q0 20 14.5 34.5t34.5 14.5zM26 563q20 0 34.5 -14.5t14.5 -34.5q0 -21 -14 -35t-35 -14t-34.5 14t-13.5 35q0 20 14 34.5
t34 14.5z" />
    <glyph glyph-name="igrave" unicode="&#xec;" horiz-adv-x="229" 
d="M210 25v-25h-186v25h41v324h-41v26h48q26 0 50 2t47 6v-358h41zM198 438h-33l-161 101q-30 19 -30 40q0 15 10 25t25 10q13 0 23.5 -8t24.5 -22z" />
    <glyph glyph-name="j" unicode="j" horiz-adv-x="229" 
d="M65 349h-41v26h48q26 0 50 2t47 6v-380q0 -115 -38 -174.5t-101 -59.5q-42 0 -67.5 21t-25.5 51q0 24 14.5 40t34.5 16q23 0 35 -12.5t12 -34.5q0 -20 -8.5 -29.5t-8.5 -15.5q0 -5 5 -9.5t13 -4.5q37 0 37 55q0 13 -3 52t-3 105v346zM116 617q25 0 42 -16.5t17 -40.5
q0 -23 -17 -40t-42 -17t-42 17t-17 40q0 24 17 40.5t42 16.5z" />
    <glyph glyph-name="k" unicode="k" horiz-adv-x="414" 
d="M242 25h35l-102 180v11l121 134h-55v25h141v-25h-48l-83 -91l140 -234h25v-25h-174v25zM202 25v-25h-178v25h37v601h-37v26h44q26 0 50 2t47 6v-635h37z" />
    <glyph glyph-name="l" unicode="l" horiz-adv-x="229" 
d="M22 626v26h48q26 0 50 2t47 6v-635h40v-25h-185v25h41v601h-41z" />
    <glyph glyph-name="less" unicode="&#x3c;" horiz-adv-x="833" 
d="M248 298l456 -186v-89l-575 236v78l575 237v-90z" />
    <glyph glyph-name="logicalnot" unicode="&#xac;" horiz-adv-x="833" 
d="M709 176h-81v164h-504v81h585v-245z" />
    <glyph glyph-name="m" unicode="m" horiz-adv-x="650" 
d="M24 25h37v324h-37v26h44q26 0 49.5 1.5t44.5 6.5v-72q23 35 53 52.5t63 17.5q72 0 99 -70q23 35 53 52.5t63 17.5t52.5 -10t30.5 -30.5t14.5 -51t3.5 -71.5v-193h37v-25h-178v25h37v259q0 29 -8.5 41.5t-29.5 12.5q-73 0 -73 -149v-164h37v-25h-178v25h37v259
q0 29 -8 41.5t-29 12.5q-73 0 -73 -149v-164h37v-25h-178v25z" />
    <glyph glyph-name="macron" unicode="&#xaf;" 
d="M376 545v-62h-252v62h252z" />
    <glyph glyph-name="macron" unicode="&#x2c9;" 
d="M376 545v-62h-252v62h252z" />
    <glyph glyph-name="mu" unicode="&#xb5;" horiz-adv-x="578" 
d="M86 432h101l-49 -228q-10 -46 -10 -68q0 -32 18 -49.5t50 -17.5q43 0 68 26t37 82l54 255h102l-55 -260q-3 -14 -6 -29t-3 -32q0 -21 11 -32.5t31 -11.5q38 0 63 44q6 10 9.5 19.5t7.5 17t8 12t11 4.5q11 0 11 -15q0 -11 -7 -38.5t-21 -52.5q-40 -70 -107 -70
q-41 0 -63 26t-23 77q-42 -103 -130 -103q-48 0 -76.5 28t-33.5 82q-14 -77 -20.5 -134t-13.5 -94.5t-18.5 -56t-36.5 -18.5q-23 0 -35.5 13t-12.5 36q0 19 8 49.5t20.5 72.5t28 95.5t29.5 120.5z" />
    <glyph glyph-name="mu" unicode="&#x3bc;" horiz-adv-x="578" 
d="M86 432h101l-49 -228q-10 -46 -10 -68q0 -32 18 -49.5t50 -17.5q43 0 68 26t37 82l54 255h102l-55 -260q-3 -14 -6 -29t-3 -32q0 -21 11 -32.5t31 -11.5q38 0 63 44q6 10 9.5 19.5t7.5 17t8 12t11 4.5q11 0 11 -15q0 -11 -7 -38.5t-21 -52.5q-40 -70 -107 -70
q-41 0 -63 26t-23 77q-42 -103 -130 -103q-48 0 -76.5 28t-33.5 82q-14 -77 -20.5 -134t-13.5 -94.5t-18.5 -56t-36.5 -18.5q-23 0 -35.5 13t-12.5 36q0 19 8 49.5t20.5 72.5t28 95.5t29.5 120.5z" />
    <glyph glyph-name="n" unicode="n" horiz-adv-x="435" 
d="M24 25h37v324h-37v26h44q26 0 49.5 1.5t44.5 6.5v-72q23 35 53 52.5t63 17.5t52.5 -10t30.5 -30.5t14.5 -51t3.5 -71.5v-193h37v-25h-178v25h37v259q0 29 -8 41.5t-29 12.5q-73 0 -73 -149v-164h37v-25h-178v25z" />
    <glyph glyph-name="nine" unicode="9" horiz-adv-x="398" 
d="M242 259q2 33 3 55t1 34v125q0 70 -7 103.5t-36 33.5t-38 -28.5t-9 -88.5v-129q0 -64 6.5 -94.5t35.5 -30.5q22 0 44 20zM240 231q-31 -16 -60 -16q-31 0 -57.5 14t-45.5 39.5t-29.5 62t-10.5 81.5q0 50 13.5 91t36.5 69.5t53 44t63 15.5q74 0 119 -64t45 -182
q0 -80 -21.5 -148t-61.5 -119.5t-97 -85.5t-128 -47v24q81 23 124 78t57 143z" />
    <glyph glyph-name="ntilde" unicode="&#xf1;" horiz-adv-x="435" 
d="M24 25h37v324h-37v26h44q26 0 49.5 1.5t44.5 6.5v-72q23 35 53 52.5t63 17.5t52.5 -10t30.5 -30.5t14.5 -51t3.5 -71.5v-193h37v-25h-178v25h37v259q0 29 -8 41.5t-29 12.5q-73 0 -73 -149v-164h37v-25h-178v25zM359 584q-19 -100 -95 -100q-14 0 -36 5l-53 13
q-12 3 -28 3q-17 0 -26.5 -10.5t-16.5 -33.5h-25q18 104 96 104q18 0 31 -4l54 -14q18 -5 27 -5q19 0 29 10t17 32h26z" />
    <glyph glyph-name="numbersign" unicode="#" horiz-adv-x="769" 
d="M343 419l-46 -129h134l46 129h-134zM373 500h131l76 213h89l-76 -213h142l-29 -81h-142l-45 -128h150l-29 -82h-150l-75 -212h-90l76 212h-131l-75 -212h-90l76 212h-147l29 82h147l45 128h-156l30 81h155l76 213h89z" />
    <glyph glyph-name="o" unicode="o" horiz-adv-x="384" 
d="M244 265q0 49 -11.5 72.5t-40.5 23.5q-30 0 -41 -23.5t-11 -72.5v-155q0 -49 11 -72.5t41 -23.5q29 0 40.5 23.5t11.5 72.5v155zM192 384q36 0 66.5 -14.5t53 -40.5t35.5 -62.5t13 -79.5q0 -44 -13 -80t-35.5 -62t-53 -40.5t-66.5 -14.5t-67 14.5t-53.5 40.5t-35 62
t-12.5 80q0 43 13 79.5t35.5 62.5t53 40.5t66.5 14.5z" />
    <glyph glyph-name="oacute" unicode="&#xf3;" horiz-adv-x="384" 
d="M244 265q0 49 -11.5 72.5t-40.5 23.5q-30 0 -41 -23.5t-11 -72.5v-155q0 -49 11 -72.5t41 -23.5q29 0 40.5 23.5t11.5 72.5v155zM192 384q36 0 66.5 -14.5t53 -40.5t35.5 -62.5t13 -79.5q0 -44 -13 -80t-35.5 -62t-53 -40.5t-66.5 -14.5t-67 14.5t-53.5 40.5t-35 62
t-12.5 80q0 43 13 79.5t35.5 62.5t53 40.5t66.5 14.5zM140 438h-33l141 146q14 14 24.5 22t23.5 8q15 0 25 -10t10 -25q0 -21 -30 -40z" />
    <glyph glyph-name="ocircumflex" unicode="&#xf4;" horiz-adv-x="384" 
d="M244 265q0 49 -11.5 72.5t-40.5 23.5q-30 0 -41 -23.5t-11 -72.5v-155q0 -49 11 -72.5t41 -23.5q29 0 40.5 23.5t11.5 72.5v155zM192 384q36 0 66.5 -14.5t53 -40.5t35.5 -62.5t13 -79.5q0 -44 -13 -80t-35.5 -62t-53 -40.5t-66.5 -14.5t-67 14.5t-53.5 40.5t-35 62
t-12.5 80q0 43 13 79.5t35.5 62.5t53 40.5t66.5 14.5zM222 609l113 -171h-28l-114 103l-114 -103h-28l113 171h58z" />
    <glyph glyph-name="odieresis" unicode="&#xf6;" horiz-adv-x="384" 
d="M244 265q0 49 -11.5 72.5t-40.5 23.5q-30 0 -41 -23.5t-11 -72.5v-155q0 -49 11 -72.5t41 -23.5q29 0 40.5 23.5t11.5 72.5v155zM192 384q36 0 66.5 -14.5t53 -40.5t35.5 -62.5t13 -79.5q0 -44 -13 -80t-35.5 -62t-53 -40.5t-66.5 -14.5t-67 14.5t-53.5 40.5t-35 62
t-12.5 80q0 43 13 79.5t35.5 62.5t53 40.5t66.5 14.5zM279 563q20 0 34 -14.5t14 -34.5q0 -21 -13.5 -35t-34.5 -14t-35 14t-14 35q0 20 14.5 34.5t34.5 14.5zM107 563q20 0 34.5 -14.5t14.5 -34.5q0 -21 -14 -35t-35 -14t-34.5 14t-13.5 35q0 20 14 34.5t34 14.5z" />
    <glyph glyph-name="oe" unicode="&#x153;" horiz-adv-x="593" 
d="M461 245v38q0 80 -47 80q-29 0 -41.5 -19t-12.5 -61v-38h101zM570 120q-6 -58 -49 -94t-107 -36q-31 0 -60 12t-51 35q-44 -47 -111 -47q-36 0 -67 14.5t-53.5 40.5t-35 62t-12.5 80q0 43 13 79.5t35.5 62.5t53 40.5t66.5 14.5q68 0 112 -47q48 48 112 48
q33 0 60.5 -11.5t48 -33t31.5 -52t11 -68.5v-2h-207v-78q0 -61 16.5 -90t60.5 -29q42 0 70.5 25.5t37.5 73.5h25zM140 110q0 -49 11 -72.5t41 -23.5q29 0 40.5 23.5t11.5 72.5v155q0 49 -11.5 72.5t-40.5 23.5q-30 0 -41 -23.5t-11 -72.5v-155z" />
    <glyph glyph-name="ogonek" unicode="&#x2db;" 
d="M305 15q-89 -69 -89 -130q0 -27 14 -42.5t36 -15.5q38 0 58 36l14 -9q-18 -36 -44.5 -54.5t-58.5 -18.5q-35 0 -56.5 20t-21.5 50q0 44 31 84t93 80h24z" />
    <glyph glyph-name="ograve" unicode="&#xf2;" horiz-adv-x="384" 
d="M244 265q0 49 -11.5 72.5t-40.5 23.5q-30 0 -41 -23.5t-11 -72.5v-155q0 -49 11 -72.5t41 -23.5q29 0 40.5 23.5t11.5 72.5v155zM192 384q36 0 66.5 -14.5t53 -40.5t35.5 -62.5t13 -79.5q0 -44 -13 -80t-35.5 -62t-53 -40.5t-66.5 -14.5t-67 14.5t-53.5 40.5t-35 62
t-12.5 80q0 43 13 79.5t35.5 62.5t53 40.5t66.5 14.5zM279 438h-33l-161 101q-30 19 -30 40q0 15 10 25t25 10q13 0 23.5 -8t24.5 -22z" />
    <glyph glyph-name="one" unicode="1" horiz-adv-x="398" 
d="M153 623q54 0 107 9v-607h96v-25h-312v25h105v572h-100v26h104z" />
    <glyph glyph-name="ordfeminine" unicode="&#xaa;" horiz-adv-x="283" 
d="M165 526q-70 0 -70 -62q0 -47 32 -47q38 0 38 54v55zM242 439q0 -20 11 -20q6 0 16 7l9 -7q-27 -34 -61 -34q-38 0 -48 39q-35 -39 -83 -39q-32 0 -50.5 18t-18.5 46q0 38 37.5 62.5t110.5 29.5v60q0 22 -8 32t-28 10q-16 0 -25 -4t-9 -8q0 -5 9 -13t9 -23
q0 -14 -10.5 -23.5t-26.5 -9.5q-17 0 -27.5 10t-10.5 24q0 27 28.5 45t79.5 18q54 0 75 -20t21 -66v-134z" />
    <glyph glyph-name="ordmasculine" unicode="&#xba;" horiz-adv-x="288" 
d="M183 575q0 35 -8.5 51.5t-30.5 16.5q-23 0 -31 -16.5t-8 -51.5v-108q0 -35 8 -51t31 -16q22 0 30.5 16t8.5 51v108zM144 659q27 0 50 -10t40 -28.5t26.5 -44t9.5 -55.5t-9.5 -55.5t-26.5 -44t-40 -28.5t-50 -10t-50 10t-40 28.5t-26.5 44t-9.5 55.5t9.5 55.5t26.5 44
t40 28.5t50 10z" />
    <glyph glyph-name="oslash" unicode="&#xf8;" horiz-adv-x="384" 
d="M145 46q8 -17 19 -24.5t28 -7.5q32 0 43.5 23.5t11.5 72.5v183zM239 333q-16 28 -47 28t-43 -23.5t-12 -72.5v-175zM97 22q-73 61 -73 165q0 43 13 79.5t35.5 62.5t53 40.5t66.5 14.5q33 0 67 -14l34 74h34l-42 -91q75 -57 75 -166q0 -44 -13 -80t-35.5 -62t-53 -40.5
t-66.5 -14.5q-33 0 -68 16l-36 -77h-33z" />
    <glyph glyph-name="otilde" unicode="&#xf5;" horiz-adv-x="384" 
d="M244 265q0 49 -11.5 72.5t-40.5 23.5q-30 0 -41 -23.5t-11 -72.5v-155q0 -49 11 -72.5t41 -23.5q29 0 40.5 23.5t11.5 72.5v155zM192 384q36 0 66.5 -14.5t53 -40.5t35.5 -62.5t13 -79.5q0 -44 -13 -80t-35.5 -62t-53 -40.5t-66.5 -14.5t-67 14.5t-53.5 40.5t-35 62
t-12.5 80q0 43 13 79.5t35.5 62.5t53 40.5t66.5 14.5zM333 584q-19 -100 -95 -100q-14 0 -36 5l-53 13q-12 3 -28 3q-17 0 -26.5 -10.5t-16.5 -33.5h-25q18 104 96 104q18 0 31 -4l54 -14q18 -5 27 -5q19 0 29 10t17 32h26z" />
    <glyph glyph-name="p" unicode="p" horiz-adv-x="425" 
d="M160 160q0 -72 23.5 -110t56.5 -38q28 0 36.5 26t8.5 81v147q0 45 -10 66t-38 21q-33 0 -55 -37.5t-22 -109.5v-46zM160 -197h51v-25h-197v25h42v546h-42v26h48q23 0 47 2t48 6v-68q36 66 105 66q28 0 53 -14t44 -39t30.5 -60t11.5 -78q0 -45 -11.5 -82t-32 -63.5
t-48 -40.5t-58.5 -14q-62 0 -91 61v-248z" />
    <glyph glyph-name="paragraph" unicode="&#xb6;" 
d="M416 674v-674h-63v674h-83v-674h-63v383q-84 3 -132 50t-48 119q0 37 13 68.5t38 54t60.5 35t79.5 12.5h255v-48h-57z" />
    <glyph glyph-name="parenleft" unicode="(" horiz-adv-x="299" 
d="M282 637q-74 -59 -101.5 -161.5t-27.5 -256.5q0 -77 6 -141t21 -116t40 -92t62 -70v-27q-225 178 -225 446q0 267 225 445v-27z" />
    <glyph glyph-name="parenright" unicode=")" horiz-adv-x="299" 
d="M16 664q112 -89 169 -200t57 -245t-57 -245.5t-169 -200.5v27q37 30 62 70t40 92t21.5 116t6.5 141q0 154 -28 256.5t-102 161.5v27z" />
    <glyph glyph-name="percent" unicode="%" horiz-adv-x="609" 
d="M525 299q-33 0 -71 -68q-29 -51 -41 -93t-12 -68q0 -46 39 -46q17 0 41 17t44 52t31 70t11 72q0 29 -12.5 46.5t-29.5 17.5zM508 324q38 0 58.5 -23.5t20.5 -67.5q0 -29 -9 -65.5t-29 -72.5q-26 -48 -62 -73t-73 -25q-44 0 -70 27t-26 73q0 37 14.5 76t43.5 75
q29 38 64.5 57t67.5 19zM213 593q-26 -25 -45.5 -55t-32.5 -61t-20 -60t-7 -51q0 -46 40 -46q17 0 41 17t44 52q41 70 41 142q0 14 -4 29q-33 4 -57 33zM404 584q-46 -28 -105 -28h-6q1 -7 1.5 -13t0.5 -12q0 -32 -9.5 -68t-29.5 -72q-26 -48 -61.5 -73t-72.5 -25
q-43 0 -70 27t-27 73q0 37 15 76t44 75q30 38 64 58t63 20q44 0 70 -37q15 -3 33 -3q34 0 65.5 15t55.5 44h37l-297 -650h-43z" />
    <glyph glyph-name="period" unicode="." horiz-adv-x="199" 
d="M100 122q29 0 48.5 -19t19.5 -47q0 -27 -19.5 -46t-48.5 -19t-49 19t-20 46q0 28 20 47t49 19z" />
    <glyph glyph-name="periodcentered" unicode="&#xb7;" horiz-adv-x="199" 
d="M99 377q29 0 49 -19.5t20 -47.5q0 -27 -20 -46t-49 -19t-48.5 19t-19.5 46q0 28 19.5 47.5t48.5 19.5z" />
    <glyph glyph-name="periodcentered" unicode="&#x2219;" horiz-adv-x="199" 
d="M99 377q29 0 49 -19.5t20 -47.5q0 -27 -20 -46t-49 -19t-48.5 19t-19.5 46q0 28 19.5 47.5t48.5 19.5z" />
    <glyph glyph-name="perthousand" unicode="&#x2030;" horiz-adv-x="916" 
d="M832 298q-34 0 -71 -67q-29 -51 -41 -93.5t-12 -68.5q0 -46 40 -46q17 0 41 17.5t44 52.5q41 70 41 141q0 29 -12.5 46.5t-29.5 17.5zM508 324q38 0 58.5 -23.5t20.5 -67.5q0 -29 -9 -65t-28 -71q-26 -49 -62 -74.5t-74 -25.5q-43 0 -69.5 27t-26.5 73q0 37 14.5 76
t43.5 75q29 38 64.5 57t67.5 19zM525 299q-33 0 -71 -68q-29 -51 -41 -93t-12 -68q0 -46 39 -46q17 0 41 17t44 52t31 70t11 72q0 29 -12.5 46.5t-29.5 17.5zM815 324q38 0 59 -23.5t21 -67.5q0 -29 -9.5 -65t-28.5 -71q-26 -49 -62 -74.5t-74 -25.5q-43 0 -69.5 27
t-26.5 73q0 37 15 76t44 75q29 38 64 57t67 19zM213 593q-26 -25 -45.5 -55t-32.5 -61t-20 -60t-7 -51q0 -46 40 -46q17 0 41 17t44 52q41 70 41 142q0 14 -4 29q-33 4 -57 33zM404 584q-46 -28 -105 -28h-6q1 -7 1.5 -13t0.5 -12q0 -32 -9.5 -68t-29.5 -72
q-26 -48 -61.5 -73t-72.5 -25q-43 0 -70 27t-27 73q0 37 15 76t44 75q30 38 64 58t63 20q44 0 70 -37q15 -3 33 -3q34 0 65.5 15t55.5 44h37l-297 -650h-43z" />
    <glyph glyph-name="plus" unicode="+" horiz-adv-x="833" 
d="M458 339h251v-81h-251v-258h-83v258h-251v81h251v257h83v-257z" />
    <glyph glyph-name="plusminus" unicode="&#xb1;" horiz-adv-x="833" 
d="M709 7h-585v82h585v-82zM458 426h251v-81h-251v-163h-83v163h-251v81h251v163h83v-163z" />
    <glyph glyph-name="q" unicode="q" horiz-adv-x="429" 
d="M269 206q0 72 -21.5 109t-54.5 37q-28 0 -38.5 -21t-10.5 -65v-147q0 -55 9 -81t36 -26q33 0 56.5 37.5t23.5 109.5v47zM269 51q-29 -61 -91 -61q-32 0 -59.5 14t-47.5 40.5t-31.5 63.5t-11.5 82q0 43 11.5 78t30.5 60t44 39t53 14q69 0 105 -66v68q24 -4 48 -6t47 -2h48
v-26h-41v-546h41v-25h-197v25h51v248z" />
    <glyph glyph-name="question" unicode="?" horiz-adv-x="370" 
d="M121 202q-4 29 -5.5 49t-1.5 34q0 22 2 40.5t7.5 34.5t14 31t22.5 32q15 19 32 34.5t31 31t23 32t9 37.5q0 34 -25 57.5t-65 23.5q-17 0 -31.5 -4.5t-25 -11t-16 -13t-5.5 -10.5q0 -5 8 -5q2 0 5.5 0.5t6.5 0.5q20 0 35 -15t15 -36q0 -24 -15.5 -40t-40.5 -16
q-27 0 -43.5 17t-16.5 46q0 21 10 41t26.5 35.5t39 24.5t46.5 9q33 0 61 -12.5t47.5 -34t30.5 -51.5t11 -65t-10.5 -62.5t-28.5 -51t-43 -46t-54 -48.5q-17 -16 -25.5 -31.5t-8.5 -38.5v-9.5t1 -9.5h-23zM140 122q29 0 49 -19t20 -47q0 -27 -20 -46t-49 -19t-48.5 19
t-19.5 46q0 28 19.5 47t48.5 19z" />
    <glyph glyph-name="questiondown" unicode="&#xbf;" horiz-adv-x="370" 
d="M226 530q-29 0 -48.5 19t-19.5 47q0 27 19.5 46t48.5 19t49 -19t20 -46q0 -28 -20 -47t-49 -19zM245 450q4 -27 6 -49.5t2 -39.5q0 -44 -10.5 -73t-35.5 -59q-15 -19 -32 -34.5t-31 -31t-23 -32t-9 -37.5q0 -34 25 -58t65 -24q35 0 56.5 15t21.5 25q0 5 -9 5
q-3 0 -6 -0.5t-6 -0.5q-20 0 -34.5 15t-14.5 36q0 24 15.5 39.5t40.5 15.5q27 0 43 -16.5t16 -45.5q0 -21 -10 -41t-26.5 -35.5t-38.5 -24.5t-46 -9q-33 0 -61 12t-48 34t-31 52t-11 65t10.5 62.5t29 51t43.5 46t54 48.5q17 16 25.5 31.5t8.5 38.5v9.5t-1 9.5h22z" />
    <glyph glyph-name="quotedbl" unicode="&#x22;" horiz-adv-x="339" 
d="M206 642q-1 5 -1 9.5v9.5q0 26 12.5 39.5t34.5 13.5t34.5 -13.5t12.5 -38.5q0 -5 -0.5 -10t-1.5 -10l-36 -224h-19zM42 642q-1 5 -1 9.5v9.5q0 53 46 53q47 0 47 -53v-9.5t-1 -9.5l-36 -224h-19z" />
    <glyph glyph-name="quotedblbase" unicode="&#x201e;" horiz-adv-x="389" 
d="M246 -133q79 75 79 134v8q-17 -25 -46 -25q-25 0 -41.5 17.5t-16.5 46.5q0 32 19.5 51.5t48.5 19.5q31 0 52 -23.5t21 -63.5q0 -42 -24.5 -88.5t-75.5 -93.5zM56 -133q79 75 79 134v8q-17 -25 -46 -25q-25 0 -41.5 17.5t-16.5 46.5q0 32 19.5 51.5t48.5 19.5
q31 0 52 -23.5t21 -63.5q0 -42 -24.5 -88.5t-75.5 -93.5z" />
    <glyph glyph-name="quotedblleft" unicode="&#x201c;" horiz-adv-x="389" 
d="M334 663q-79 -75 -79 -134v-8q17 25 46 25q24 0 41 -18t17 -44q0 -34 -19 -54t-49 -20q-31 0 -52 24t-21 64q0 42 24.5 88t75.5 93zM145 663q-79 -75 -79 -134v-8q17 25 46 25q24 0 41 -18t17 -44q0 -34 -19 -54t-49 -20q-31 0 -51.5 24t-20.5 64q0 42 24 88t75 93z" />
    <glyph glyph-name="quotedblright" unicode="&#x201d;" horiz-adv-x="389" 
d="M246 412q40 37 59 70t19 62v9q-17 -24 -46 -24q-25 0 -41.5 18t-16.5 46q0 32 20 51.5t49 19.5q31 0 51.5 -23.5t20.5 -63.5q0 -42 -24.5 -88.5t-75.5 -93.5zM56 412q40 37 59 70t19 62v9q-17 -24 -45 -24q-25 0 -42 18t-17 46q0 32 20 51.5t49 19.5q31 0 51.5 -23.5
t20.5 -63.5q0 -42 -24 -88.5t-75 -93.5z" />
    <glyph glyph-name="quoteleft" unicode="&#x2018;" horiz-adv-x="199" 
d="M145 663q-79 -75 -79 -134v-8q17 25 46 25q24 0 41 -18t17 -44q0 -34 -19 -54t-49 -20q-31 0 -51.5 24t-20.5 64q0 42 24 88t75 93z" />
    <glyph glyph-name="quoteright" unicode="&#x2019;" horiz-adv-x="199" 
d="M56 412q40 37 59 70t19 62v9q-17 -24 -45 -24q-25 0 -42 18t-17 46q0 32 20 51.5t49 19.5q31 0 51.5 -23.5t20.5 -63.5q0 -42 -24 -88.5t-75 -93.5z" />
    <glyph glyph-name="quotesinglbase" unicode="&#x201a;" horiz-adv-x="199" 
d="M56 -133q79 75 79 134v8q-17 -25 -46 -25q-25 0 -41.5 17.5t-16.5 46.5q0 32 19.5 51.5t48.5 19.5q31 0 52 -23.5t21 -63.5q0 -42 -24.5 -88.5t-75.5 -93.5z" />
    <glyph glyph-name="quotesingle" unicode="'" horiz-adv-x="175" 
d="M42 642q-1 5 -1 9.5v9.5q0 53 46 53q47 0 47 -53v-9.5t-1 -9.5l-36 -224h-19z" />
    <glyph glyph-name="r" unicode="r" horiz-adv-x="317" 
d="M24 25h37v324h-37v26h44q27 0 50.5 2t43.5 6v-64q15 32 38 48.5t52 16.5q28 0 46 -18.5t18 -45.5q0 -25 -13.5 -39.5t-36.5 -14.5q-20 0 -34 12.5t-14 31.5q0 14 5 24t5 16q0 5 -8 5q-22 0 -38.5 -41t-16.5 -125v-164h51v-25h-192v25z" />
    <glyph glyph-name="registered" unicode="&#xae;" horiz-adv-x="822" 
d="M365 353q11 -1 17.5 -1h8.5q50 0 76 21.5t26 61.5q0 33 -22 55t-60 22q-46 0 -46 -33v-126zM423 535q75 0 115.5 -28t40.5 -68q0 -43 -33 -66t-105 -36q46 -12 71.5 -35t34.5 -63q3 -14 4 -28t3 -25t7 -17.5t17 -6.5q29 0 29 65h24v-11q0 -85 -83 -85q-46 0 -65 28
q-14 23 -13 50t-4 50q-16 71 -89 71h-12v-120q0 -25 11.5 -34.5t41.5 -12.5v-23h-190v23q32 2 43.5 11.5t11.5 35.5v254q0 26 -11.5 35.5t-43.5 11.5v24h195zM715 331q0 60 -24 117.5t-66 100.5q-42 42 -97.5 65t-115.5 23q-61 0 -117 -23t-99 -67q-44 -45 -66.5 -99.5
t-22.5 -116.5q0 -63 23 -117.5t67 -98.5q89 -89 214 -89q62 0 116.5 22.5t97.5 66.5q44 45 67 100.5t23 115.5zM412 684q71 0 136.5 -27.5t114.5 -78.5q48 -49 74 -114t26 -137q0 -67 -28.5 -132.5t-81.5 -117.5q-98 -97 -249 -97q-66 0 -128.5 26t-112.5 76
q-104 104 -104 249q0 70 26.5 134t76.5 115q50 50 114.5 77t135.5 27z" />
    <glyph glyph-name="ring" unicode="&#x2da;" 
d="M250 620q-30 0 -51 -21t-21 -52q0 -30 21 -51.5t51 -21.5q31 0 52.5 21.5t21.5 51.5q0 31 -21.5 52t-52.5 21zM250 664q25 0 46.5 -9t37.5 -25t25 -37t9 -46t-9 -46.5t-25 -37.5t-37.5 -25t-46.5 -9t-46.5 9t-37 25t-24.5 37.5t-9 46.5t9 46t24.5 37t37 25t46.5 9z" />
    <glyph glyph-name="s" unicode="s" horiz-adv-x="303" 
d="M41 136h25q5 -57 30.5 -88t62.5 -31q29 0 47.5 16t18.5 39q0 29 -23 43t-62 31q-50 22 -74 48t-24 75q0 53 29 83.5t74 30.5q39 0 78 -27l20 27h18v-117h-23q-20 95 -96 95q-24 0 -40 -13.5t-16 -33.5q0 -14 7.5 -22.5t20 -14.5t29.5 -12t36 -16q24 -12 41.5 -23.5
t29.5 -26t18 -34t6 -46.5t-8.5 -50t-24 -39.5t-37 -26t-46.5 -9.5q-45 0 -81 33l-17 -35h-19v144z" />
    <glyph glyph-name="section" unicode="&#xa7;" horiz-adv-x="440" 
d="M110 312q0 -44 55 -98q45 -44 73 -69.5t51 -25.5q25 0 42.5 17t17.5 44q0 28 -18 54t-49 58q-38 39 -64.5 60.5t-49.5 21.5q-24 0 -41 -18t-17 -44zM336 365q38 -36 57 -70.5t19 -71.5q0 -51 -33.5 -84.5t-92.5 -38.5q42 -38 63 -73.5t21 -71.5q0 -54 -42 -89.5
t-117 -35.5q-30 0 -55.5 8.5t-43.5 23t-28.5 33t-10.5 39.5q0 26 14.5 41t38.5 15q23 0 37 -15t14 -40q0 -13 -4.5 -22t-10.5 -15.5t-10.5 -11t-4.5 -9.5q0 -11 17 -19.5t47 -8.5q35 0 56.5 20t21.5 52q0 36 -24 64.5t-64 66.5l-80 76q-38 37 -57.5 71.5t-19.5 71.5
q0 51 34.5 84.5t91.5 36.5q-41 39 -62 73t-21 71q0 58 39 93t109 35q59 0 95 -29t36 -73q0 -26 -14 -42t-39 -16q-23 0 -37 15t-14 39q0 13 4.5 22.5t10.5 16t10.5 12t4.5 11.5q0 8 -16 16.5t-41 8.5q-32 0 -50.5 -18t-18.5 -47q0 -20 6.5 -37.5t18.5 -34t29 -33.5t38 -36z
" />
    <glyph glyph-name="semicolon" unicode=";" horiz-adv-x="222" 
d="M111 384q29 0 48.5 -19t19.5 -47q0 -27 -19.5 -46t-48.5 -19t-48.5 19t-19.5 46q0 28 19.5 47t48.5 19zM68 -133q79 75 79 134v8q-17 -25 -46 -25q-25 0 -42 17.5t-17 46.5q0 32 20 51.5t49 19.5q31 0 51.5 -23.5t20.5 -63.5q0 -42 -24 -88.5t-75 -93.5z" />
    <glyph glyph-name="semicolon" unicode="&#x37e;" horiz-adv-x="222" 
d="M111 384q29 0 48.5 -19t19.5 -47q0 -27 -19.5 -46t-48.5 -19t-48.5 19t-19.5 46q0 28 19.5 47t48.5 19zM68 -133q79 75 79 134v8q-17 -25 -46 -25q-25 0 -42 17.5t-17 46.5q0 32 20 51.5t49 19.5q31 0 51.5 -23.5t20.5 -63.5q0 -42 -24 -88.5t-75 -93.5z" />
    <glyph glyph-name="seven" unicode="7" horiz-adv-x="398" 
d="M153 521q-24 0 -40.5 -2t-27.5 -9t-17.5 -21.5t-11.5 -38.5h-22l43 173h297v-33q-68 -144 -101 -240t-33 -144q0 -23 4.5 -44t10 -39.5t10 -35t4.5 -30.5q0 -30 -17 -48t-46 -18q-32 0 -50.5 20t-18.5 58q0 26 13.5 66.5t38 96t58 127.5t72.5 162h-166z" />
    <glyph glyph-name="six" unicode="6" horiz-adv-x="398" 
d="M165 364q-2 -34 -3 -56t-1 -33v-125q0 -69 6.5 -103.5t36.5 -34.5q29 0 38 29t9 89v129q0 63 -7.5 94t-33.5 31q-22 0 -45 -20zM167 392q31 16 60 16q30 0 56.5 -14t45.5 -40t30 -62t11 -81q0 -50 -13.5 -91t-36.5 -69.5t-53 -44t-63 -15.5q-74 0 -119 64t-45 182
q0 80 21.5 148t61.5 119.5t97 85.5t128 47v-24q-81 -23 -124 -78t-57 -143z" />
    <glyph glyph-name="slash" unicode="/" horiz-adv-x="278" 
d="M-59 -93l308 757h53l-308 -757h-53z" />
    <glyph glyph-name="Aacute" unicode="&#xc1;" horiz-adv-x="465" 
d="M248 224l-54 211l-58 -211h112zM6 28h43l178 625h39l164 -625h35v-28h-214v28h47l-42 166h-129l-47 -166h59v-28h-133v28zM198 716h-33l141 146q14 14 24.5 22t23.5 8q15 0 25 -10t10 -25q0 -21 -30 -40z" />
    <glyph glyph-name="sterling" unicode="&#xa3;" horiz-adv-x="398" 
d="M153 71q-29 35 -55 35q-16 0 -27 -12t-11 -31q0 -21 12 -34t29 -13q37 0 52 55zM183 38q-33 -45 -80 -45q-29 0 -48 19.5t-19 51.5t22 53t56 21q21 0 50 -12q1 5 1 9v9q0 61 -51 162h-68v31h57q-30 72 -30 127q0 37 12 68t33 53t49.5 34.5t62.5 12.5q28 0 51.5 -9
t40.5 -25t27 -36.5t10 -42.5q0 -28 -18.5 -47t-44.5 -19q-23 0 -38.5 15t-15.5 37q0 21 10.5 34t32.5 21q8 3 13.5 5.5t5.5 7.5q0 10 -18 22.5t-46 12.5q-35 0 -57 -21t-22 -56q0 -17 6 -36.5t15.5 -43.5t20.5 -52t22 -62h87v-31h-79q6 -35 6 -59q0 -74 -27 -134
q43 -18 79 -18q71 0 74 85h21v-12q0 -87 -28 -132t-78 -45q-23 0 -46.5 12t-50.5 35z" />
    <glyph glyph-name="t" unicode="t" horiz-adv-x="273" 
d="M18 347v28h48v107q6 0 11.5 -0.5t11.5 -0.5q22 0 42 2.5t39 7.5v-116h77v-28h-77v-259q0 -25 4.5 -37.5t20.5 -12.5q14 0 25.5 13.5t15.5 36.5h23q-3 -43 -33.5 -70t-78.5 -27q-50 0 -65.5 27.5t-15.5 84.5v244h-48z" />
    <glyph glyph-name="three" unicode="3" horiz-adv-x="398" 
d="M195 338q81 -14 125.5 -59.5t44.5 -110.5q0 -36 -15 -68.5t-41 -56.5t-63 -38t-80 -14q-33 0 -59.5 9t-45.5 25.5t-29.5 38.5t-10.5 48q0 33 16.5 52t45.5 19q23 0 38.5 -16t15.5 -41q0 -35 -29 -53q-11 -6 -20 -8.5t-9 -10.5q0 -11 19 -23t47 -12q49 0 70 38.5t21 119.5
q0 75 -18.5 111t-64.5 36q-11 0 -20 -1t-18 -1q-23 0 -23 14q0 10 6.5 13t19.5 3q6 0 11.5 -0.5t11.5 -0.5q52 0 71 35t19 111q0 55 -15.5 81t-52.5 26q-20 0 -33.5 -8t-13.5 -13t6 -9.5t12.5 -11t12.5 -16.5t6 -25q0 -23 -15 -38.5t-38 -15.5q-24 0 -39 15.5t-15 41.5
q0 21 10.5 40t29.5 34t46 24t59 9q34 0 63 -11t50.5 -30.5t33.5 -46.5t12 -58q0 -52 -39 -89.5t-116 -57.5z" />
    <glyph glyph-name="tilde" unicode="&#x2dc;" 
d="M390 584q-19 -100 -95 -100q-14 0 -36 5l-53 13q-12 3 -28 3q-17 0 -26.5 -10.5t-16.5 -33.5h-25q18 104 96 104q18 0 31 -4l54 -14q18 -5 27 -5q19 0 29 10t17 32h26z" />
    <glyph glyph-name="trademark" unicode="&#x2122;" horiz-adv-x="822" 
d="M539 521l67 186h92v-13l-13 -1q-20 -3 -20 -26v-183q0 -23 20 -26l13 -2v-14h-120v14l15 2q19 1 19 26v183l-80 -226h-13l-83 229v-186q0 -25 19 -26l17 -2v-14h-96v14l16 2q20 2 20 25v182q0 24 -20 26l-16 1v15h97zM343 615h-15q-4 38 -19 56.5t-46 18.5h-5v-206
q0 -24 19 -26l15 -2v-14h-127v14l16 2q18 1 18 26v206h-7q-57 0 -64 -75h-14l5 92h219z" />
    <glyph glyph-name="two" unicode="2" horiz-adv-x="398" 
d="M13 56q106 112 161.5 208.5t55.5 197.5q0 61 -23 94t-63 33q-19 0 -35 -7t-28 -18t-19 -24t-7 -26q0 -15 10 -15q8 0 17 3.5t20 3.5q20 0 35 -15t15 -38q0 -24 -16.5 -40t-41.5 -16q-30 0 -48.5 23.5t-18.5 67.5q0 29 12 55t33.5 45t51.5 30t65 11t65 -11.5t51.5 -32
t34 -48.5t12.5 -61q0 -32 -12.5 -61t-32.5 -63q-14 -23 -70 -84t-152 -166h180q38 0 52.5 17.5t14.5 60.5v5h22l-9 -185h-332v56z" />
    <glyph glyph-name="u" unicode="u" horiz-adv-x="435" 
d="M267 375q58 0 108 9v-358h37v-26h-44q-26 0 -50 -1.5t-45 -6.5v72q-23 -35 -53 -52.5t-63 -17.5t-52.5 10t-30.5 30t-14.5 51t-3.5 72v193h-37v25h37q44 0 104 9v-293q0 -29 7.5 -41.5t29.5 -12.5q73 0 73 149v164h-37v25h34z" />
    <glyph glyph-name="uacute" unicode="&#xfa;" horiz-adv-x="435" 
d="M267 375q58 0 108 9v-358h37v-26h-44q-26 0 -50 -1.5t-45 -6.5v72q-23 -35 -53 -52.5t-63 -17.5t-52.5 10t-30.5 30t-14.5 51t-3.5 72v193h-37v25h37q44 0 104 9v-293q0 -29 7.5 -41.5t29.5 -12.5q73 0 73 149v164h-37v25h34zM157 438h-33l141 146q14 14 24.5 22t23.5 8
q15 0 25 -10t10 -25q0 -21 -30 -40z" />
    <glyph glyph-name="ucircumflex" unicode="&#xfb;" horiz-adv-x="435" 
d="M267 375q58 0 108 9v-358h37v-26h-44q-26 0 -50 -1.5t-45 -6.5v72q-23 -35 -53 -52.5t-63 -17.5t-52.5 10t-30.5 30t-14.5 51t-3.5 72v193h-37v25h37q44 0 104 9v-293q0 -29 7.5 -41.5t29.5 -12.5q73 0 73 149v164h-37v25h34zM239 609l113 -171h-28l-114 103l-114 -103
h-28l113 171h58z" />
    <glyph glyph-name="udieresis" unicode="&#xfc;" horiz-adv-x="435" 
d="M267 375q58 0 108 9v-358h37v-26h-44q-26 0 -50 -1.5t-45 -6.5v72q-23 -35 -53 -52.5t-63 -17.5t-52.5 10t-30.5 30t-14.5 51t-3.5 72v193h-37v25h37q44 0 104 9v-293q0 -29 7.5 -41.5t29.5 -12.5q73 0 73 149v164h-37v25h34zM296 563q20 0 34 -14.5t14 -34.5
q0 -21 -13.5 -35t-34.5 -14t-35 14t-14 35q0 20 14.5 34.5t34.5 14.5zM124 563q20 0 34.5 -14.5t14.5 -34.5q0 -21 -14 -35t-35 -14t-34.5 14t-13.5 35q0 20 14 34.5t34 14.5z" />
    <glyph glyph-name="ugrave" unicode="&#xf9;" horiz-adv-x="435" 
d="M267 375q58 0 108 9v-358h37v-26h-44q-26 0 -50 -1.5t-45 -6.5v72q-23 -35 -53 -52.5t-63 -17.5t-52.5 10t-30.5 30t-14.5 51t-3.5 72v193h-37v25h37q44 0 104 9v-293q0 -29 7.5 -41.5t29.5 -12.5q73 0 73 149v164h-37v25h34zM296 438h-33l-161 101q-30 19 -30 40
q0 15 10 25t25 10q13 0 23.5 -8t24.5 -22z" />
    <glyph glyph-name="underscore" unicode="_" 
d="M500 -236h-500v84h500v-84z" />
    <glyph glyph-name="v" unicode="v" horiz-adv-x="331" 
d="M19 349h-26v26h163v-26h-31l81 -225l75 225h-35v26h90v-26h-27l-123 -358h-26z" />
    <glyph glyph-name="w" unicode="w" horiz-adv-x="488" 
d="M16 350h-25v25h164v-25h-37l66 -218l89 243h22l83 -237l66 212h-35v25h91v-25h-28l-116 -359h-22l-91 244l-91 -244h-21z" />
    <glyph glyph-name="x" unicode="x" horiz-adv-x="388" 
d="M-1 25h48l109 144l-119 181h-38v25h198v-25h-43l66 -102l78 102h-44v25h127v-25h-50l-96 -125l131 -200h39v-25h-201v25h44l-77 121l-90 -121h49v-25h-131v25z" />
    <glyph glyph-name="y" unicode="y" horiz-adv-x="344" 
d="M24 349h-25v26h166v-26h-36l82 -223l79 223h-38v26h95v-26h-29l-168 -456q-23 -62 -49 -92.5t-59 -30.5q-21 0 -36.5 15.5t-15.5 38.5t14.5 38t34.5 15q12 0 20 -5t13.5 -11t9.5 -11t8 -5q21 0 56 103l15 45z" />
    <glyph glyph-name="ydieresis" unicode="&#xff;" horiz-adv-x="344" 
d="M24 349h-25v26h166v-26h-36l82 -223l79 223h-38v26h95v-26h-29l-168 -456q-23 -62 -49 -92.5t-59 -30.5q-21 0 -36.5 15.5t-15.5 38.5t14.5 38t34.5 15q12 0 20 -5t13.5 -11t9.5 -11t8 -5q21 0 56 103l15 45zM259 563q20 0 34 -14.5t14 -34.5q0 -21 -13.5 -35t-34.5 -14
t-35 14t-14 35q0 20 14.5 34.5t34.5 14.5zM87 563q20 0 34.5 -14.5t14.5 -34.5q0 -21 -14 -35t-35 -14t-34.5 14t-13.5 35q0 20 14 34.5t34 14.5z" />
    <glyph glyph-name="yen" unicode="&#xa5;" horiz-adv-x="398" 
d="M97 25h52v215h-122v28h122v23l-27 59h-95v28h85l-92 219h-30v26h185v-26h-36l106 -263l102 263h-43v26h111v-26h-39l-85 -219h84v-28h-96l-16 -40v-42h112v-28h-112v-215h52v-25h-218v25z" />
    <glyph glyph-name="z" unicode="z" horiz-adv-x="336" 
d="M24 25l182 326q-8 1 -15 1.5t-14 0.5q-52 0 -77.5 -26t-38.5 -86h-22l3 134h272v-24l-182 -326h35q53 0 79.5 27.5t40.5 93.5h20l-3 -147h-280v26z" />
    <glyph glyph-name="zero" unicode="0" horiz-adv-x="398" 
d="M241 471q0 70 -6 104t-35 34t-35.5 -34.5t-6.5 -103.5v-321q0 -70 6 -104t35 -34t35.5 34.5t6.5 103.5v321zM33 311q0 75 13.5 135t36 101t52.5 63t64 22q33 0 63.5 -22t53.5 -63t36.5 -101t13.5 -135t-13.5 -135t-36.5 -101t-53 -63t-64 -22q-33 0 -63.5 22t-53 63
t-36 101t-13.5 135z" />
    <glyph glyph-name="A" unicode="A" horiz-adv-x="465" 
d="M248 224l-54 211l-58 -211h112zM6 28h43l178 625h39l164 -625h35v-28h-214v28h47l-42 166h-129l-47 -166h59v-28h-133v28z" />
    <glyph glyph-name="AE" unicode="&#xc6;" horiz-adv-x="653" 
d="M262 625l-110 -327h126v327h-16zM234 28h44v242h-135l-84 -242h61v-28h-129v28h36l165 483q21 60 21 83q0 28 -53 31v28h452l6 -166h-22q-10 40 -22.5 66.5t-30.5 42.5t-43 22.5t-61 6.5h-36v-270q26 0 43.5 6.5t28 20.5t15.5 35.5t6 52.5h22v-271h-22q-2 69 -20.5 98.5
t-69.5 29.5h-3v-299h37q41 0 70 10t49 32.5t31.5 58t16.5 86.5h24l-9 -215h-388v28z" />
    <glyph glyph-name="Eth" unicode="&#xd0;" horiz-adv-x="553" 
d="M214 653q62 0 110 -8.5t87 -33.5q53 -34 82 -105.5t29 -174.5q0 -109 -33 -184.5t-93 -113.5q-38 -24 -79.5 -28.5t-90.5 -4.5h-170v28h46v294h-74v37h74v266h-46v28h158zM369 416q0 55 -4 95t-17.5 65t-38.5 37t-67 12h-5v-266h66v-37h-66v-294q6 -1 11.5 -1h10.5
q64 0 87 44.5t23 140.5v204z" />
    <glyph glyph-name="Lslash" unicode="&#x141;" horiz-adv-x="473" 
d="M56 28h47v271l-75 -50v43l75 51v282h-47v28h234v-28h-53v-225l113 75v-44l-113 -75v-328h46q71 0 105.5 46t45.5 145h24v-219h-402v28z" />
    <glyph glyph-name="Scaron" unicode="&#x160;" horiz-adv-x="400" 
d="M40 197h22q11 -89 48 -134.5t94 -45.5q43 0 70.5 28t27.5 72q0 24 -8 43t-23 36t-36.5 33t-48.5 34q-35 25 -62.5 48t-46 49t-28 57t-9.5 72q0 39 11.5 71.5t32.5 55.5t49.5 35.5t62.5 12.5q30 0 57 -10.5t55 -31.5l21 34h22v-173h-22q-17 78 -52 117t-86 39
q-38 0 -63.5 -23.5t-25.5 -58.5q0 -24 11 -43t31.5 -36t48.5 -35.5t61 -41.5q60 -42 87.5 -93.5t27.5 -120.5q0 -45 -12.5 -81.5t-34.5 -62.5t-52.5 -40t-65.5 -14q-57 0 -116 44l-26 -28h-22v192zM87 887l114 -103l114 103h28l-113 -171h-58l-113 171h28z" />
    <glyph glyph-name="Thorn" unicode="&#xde;" horiz-adv-x="495" 
d="M209 219q6 -1 11.5 -1h10.5q60 0 84.5 34t24.5 111q0 78 -24.5 111.5t-86.5 33.5h-10t-10 -1v-288zM28 28h47v597h-47v28h236v-28h-55v-89h32q242 0 242 -165q0 -86 -61 -133.5t-179 -47.5h-16.5t-17.5 1v-163h55v-28h-236v28z" />
    <glyph glyph-name="Yacute" unicode="&#xdd;" horiz-adv-x="447" 
d="M105 28h54v277l-136 320h-30v28h208v-28h-39l113 -275l106 275h-44v28h115v-28h-40l-119 -300v-297h55v-28h-243v28zM172 716h-33l141 146q14 14 24.5 22t23.5 8q15 0 25 -10t10 -25q0 -21 -30 -40z" />
    <glyph glyph-name="Zcaron" unicode="&#x17d;" horiz-adv-x="456" 
d="M16 28l265 599h-57q-68 0 -103.5 -34t-50.5 -112h-24l5 172h363v-28l-266 -600h61q45 0 77 10t53.5 32t34 58t17.5 88h24l-9 -213h-390v28zM115 887l114 -103l114 103h28l-113 -171h-58l-113 171h28z" />
    <glyph glyph-name="brokenbar" unicode="&#xa6;" 
d="M294 -171h-87v370h87v-370zM294 329h-87v370h87v-370z" />
    <glyph glyph-name="eth" unicode="&#xf0;" horiz-adv-x="384" 
d="M230 377q-9 66 -35 130l-103 -41l-8 23l101 41q-23 54 -64 109l26 20q46 -43 90 -109l113 46l11 -24l-111 -44q54 -94 81.5 -178.5t27.5 -162.5q0 -44 -12.5 -80.5t-35 -62.5t-53 -40t-66.5 -14t-67 14.5t-53.5 40.5t-35 62t-12.5 80q0 43 13 79.5t35.5 62.5t53 40.5
t66.5 14.5q21 0 38 -7zM140 110q0 -49 11 -72.5t41 -23.5q29 0 40.5 23.5t11.5 72.5v155q0 49 -11.5 72.5t-40.5 23.5q-30 0 -41 -23.5t-11 -72.5v-155z" />
    <glyph glyph-name="lslash" unicode="&#x142;" horiz-adv-x="262" 
d="M16 260v39l63 41v286h-41v26h48q26 0 50 2t47 6v-275l63 41v-38l-63 -41v-322h41v-25h-186v25h41v276z" />
    <glyph glyph-name="minus" unicode="&#x2212;" horiz-adv-x="833" 
d="M709 257h-585v83h585v-83z" />
    <glyph glyph-name="multiply" unicode="&#xd7;" horiz-adv-x="833" 
d="M646 580l57 -57l-224 -225l224 -224l-57 -58l-225 225l-224 -225l-57 58l224 224l-224 225l57 57l224 -224z" />
    <glyph glyph-name="onehalf" unicode="&#xbd;" horiz-adv-x="669" 
d="M426 31q68 63 102.5 117t34.5 111q0 34 -14.5 52.5t-39.5 18.5q-24 0 -40 -14t-16 -28q0 -9 6 -9q5 0 10.5 2t12.5 2q13 0 22.5 -8.5t9.5 -20.5q0 -14 -10.5 -23t-26.5 -9q-19 0 -30.5 13.5t-11.5 37.5q0 33 28.5 56t73.5 23t74 -24.5t29 -60.5q0 -19 -8 -35t-21 -35
q-8 -13 -43.5 -47t-95.5 -93h113q23 0 32.5 10t9.5 34v3h14l-6 -104h-209v31zM536 632h48l-452 -641h-48zM96 622q17 0 34 1.5t34 3.5v-340h60v-14h-196v14h66v320h-63v15h65z" />
    <glyph glyph-name="onequarter" unicode="&#xbc;" horiz-adv-x="669" 
d="M540 109v175q-33 -54 -55.5 -98.5t-36.5 -76.5h92zM497 14h43v79h-106v22q42 85 74.5 143t55.5 93h42v-242h29v37h12v-89h-12v36h-29v-79h34v-14h-143v14zM536 632h48l-452 -641h-48zM96 622q17 0 34 1.5t34 3.5v-340h60v-14h-196v14h66v320h-63v15h65z" />
    <glyph glyph-name="onesuperior" unicode="&#xb9;" horiz-adv-x="263" 
d="M101 623q18 0 35.5 1.5t35.5 3.5v-364h63v-15h-206v15h69v343h-66v16h69z" />
    <glyph glyph-name="scaron" unicode="&#x161;" horiz-adv-x="303" 
d="M41 136h25q5 -57 30.5 -88t62.5 -31q29 0 47.5 16t18.5 39q0 29 -23 43t-62 31q-50 22 -74 48t-24 75q0 53 29 83.5t74 30.5q39 0 78 -27l20 27h18v-117h-23q-20 95 -96 95q-24 0 -40 -13.5t-16 -33.5q0 -14 7.5 -22.5t20 -14.5t29.5 -12t36 -16q24 -12 41.5 -23.5
t29.5 -26t18 -34t6 -46.5t-8.5 -50t-24 -39.5t-37 -26t-46.5 -9.5q-45 0 -81 33l-17 -35h-19v144zM39 609l114 -103l114 103h28l-113 -171h-58l-113 171h28z" />
    <glyph glyph-name="thorn" unicode="&#xfe;" horiz-adv-x="420" 
d="M155 -197h52v-25h-198v25h42v823h-41v26h48q26 0 50 2t47 6v-341q35 62 102 62q28 0 53 -14t44 -39t30.5 -60t11.5 -78q0 -45 -11.5 -82t-31.5 -63.5t-47.5 -40.5t-58.5 -14q-63 0 -92 61v-248zM155 160q0 -72 23.5 -110t56.5 -38q28 0 37 26t9 81v147q0 45 -10.5 66
t-38.5 21q-33 0 -55 -37.5t-22 -109.5v-46z" />
    <glyph glyph-name="threequarters" unicode="&#xbe;" horiz-adv-x="668" 
d="M540 109v175q-33 -54 -55.5 -98.5t-36.5 -76.5h92zM497 14h43v79h-106v22q42 85 74.5 143t55.5 93h42v-242h29v37h12v-89h-12v36h-29v-79h34v-14h-143v14zM536 632h48l-452 -641h-48zM123 462q51 -8 79 -33.5t28 -61.5q0 -20 -9.5 -38t-26 -31.5t-39.5 -21.5t-50 -8
q-42 0 -67 19.5t-25 48.5q0 18 10.5 28.5t28.5 10.5q15 0 24.5 -8.5t9.5 -22.5q0 -20 -18 -30q-7 -4 -12.5 -5t-5.5 -6q0 -6 12 -12.5t29 -6.5q31 0 44.5 21.5t13.5 66.5q0 42 -12 62t-41 20q-6 0 -12 -0.5t-12 -0.5q-14 0 -14 8q0 9 16 9h15q32 0 44.5 19.5t12.5 61.5
q0 31 -10 45.5t-33 14.5q-13 0 -21.5 -4.5t-8.5 -7.5q0 -2 3.5 -4.5t8 -6.5t8 -9.5t3.5 -13.5q0 -14 -9 -22t-24 -8t-24.5 8.5t-9.5 22.5q0 23 25 41.5t66 18.5q43 0 71.5 -23t28.5 -58q0 -60 -97 -83z" />
    <glyph glyph-name="threesuperior" unicode="&#xb3;" horiz-adv-x="263" 
d="M129 452q54 -8 83 -36t29 -66q0 -22 -10 -41t-27 -33.5t-41.5 -23t-52.5 -8.5q-44 0 -70 20.5t-26 51.5q0 20 11 31.5t30 11.5q15 0 25 -10t10 -24q0 -23 -19 -32q-7 -4 -13 -5.5t-6 -6.5q0 -6 12.5 -13.5t31.5 -7.5q32 0 46 23.5t14 71.5q0 45 -12.5 66.5t-42.5 21.5
q-7 0 -13 -0.5t-12 -0.5q-15 0 -15 9t17 9h15q35 0 47 21t12 66q0 33 -10 48.5t-34 15.5q-14 0 -22.5 -4.5t-8.5 -7.5t3.5 -5.5t8 -6.5t8.5 -10t4 -15q0 -14 -10 -23.5t-25 -9.5q-16 0 -26 9t-10 25q0 25 26.5 45t69.5 20q45 0 75 -25t30 -63q0 -31 -25.5 -54t-76.5 -34z
" />
    <glyph glyph-name="twosuperior" unicode="&#xb2;" horiz-adv-x="263" 
d="M9 283q70 68 106.5 125t36.5 118q0 37 -15.5 56.5t-41.5 19.5q-25 0 -42 -14.5t-17 -30.5q0 -9 7 -9q5 0 10.5 2.5t13.5 2.5q14 0 23.5 -9t9.5 -23t-10.5 -24t-27.5 -10q-20 0 -32 14.5t-12 40.5q0 18 8 33t22 26.5t34 18t43 6.5q47 0 77 -26t30 -65q0 -20 -8 -37.5
t-21 -37.5q-9 -14 -46.5 -50.5t-100.5 -99.5h119q25 0 34.5 10.5t9.5 36.5v3h15l-6 -111h-219v34z" />
    <glyph glyph-name="yacute" unicode="&#xfd;" horiz-adv-x="344" 
d="M24 349h-25v26h166v-26h-36l82 -223l79 223h-38v26h95v-26h-29l-168 -456q-23 -62 -49 -92.5t-59 -30.5q-21 0 -36.5 15.5t-15.5 38.5t14.5 38t34.5 15q12 0 20 -5t13.5 -11t9.5 -11t8 -5q21 0 56 103l15 45zM120 438h-33l141 146q14 14 24.5 22t23.5 8q15 0 25 -10
t10 -25q0 -21 -30 -40z" />
    <glyph glyph-name="zcaron" unicode="&#x17e;" horiz-adv-x="336" 
d="M24 25l182 326q-8 1 -15 1.5t-14 0.5q-52 0 -77.5 -26t-38.5 -86h-22l3 134h272v-24l-182 -326h35q53 0 79.5 27.5t40.5 93.5h20l-3 -147h-280v26zM55 609l114 -103l114 103h28l-113 -171h-58l-113 171h28z" />
  </font>
</defs>
</svg>
